<svg width="175" height="176" viewBox="0 0 175 176" fill="none" xmlns="http://www.w3.org/2000/svg">
<rect x="5.5" y="26.5" width="144" height="144" rx="5.5" stroke="#1E1D80" stroke-width="11"/>
<rect x="20" width="155" height="155" rx="11" fill="#1E1D80"/>
<path d="M39.8 146C35.64 146 32.68 145.16 30.92 143.48C29.24 141.72 28.4 138.76 28.4 134.6V73.4C28.4 69.24 29.24 66.32 30.92 64.64C32.68 62.88 35.64 62 39.8 62H63.2C64.48 62 65.28 62.24 65.6 62.72C66 63.12 66.2 63.96 66.2 65.24V68.96H43.64C41.16 68.96 39.6 69.48 38.96 70.52C38.32 71.56 38 73.32 38 75.8V132.2C38 134.68 38.32 136.44 38.96 137.48C39.6 138.52 41.16 139.04 43.64 139.04H53.24C55.72 139.04 57.28 138.52 57.92 137.48C58.56 136.44 58.88 134.68 58.88 132.2V105.92H48.56V102.2C48.56 100.92 48.76 100.08 49.16 99.68C49.64 99.2 50.52 98.96 51.8 98.96H68.48V134.6C68.48 138.76 67.6 141.72 65.84 143.48C64.08 145.16 61.12 146 56.96 146H39.8ZM116.824 62V65.72C116.824 67 116.624 67.88 116.224 68.36C115.904 68.76 115.104 68.96 113.824 68.96H93.9041V98.96H113.224V102.68C113.224 103.96 113.024 104.84 112.624 105.32C112.304 105.72 111.504 105.92 110.224 105.92H93.9041V142.76C93.9041 144.04 93.6641 144.92 93.1841 145.4C92.7841 145.8 91.9441 146 90.6641 146H84.3041V65.24C84.3041 63.96 84.5041 63.12 84.9041 62.72C85.3841 62.24 86.2641 62 87.5441 62H116.824Z" fill="white"/>
<path fill-rule="evenodd" clip-rule="evenodd" d="M155 82V32C155 25.9249 150.075 21 144 21H92V32H144V82H155Z" fill="white"/>
</svg>
