<svg width="512" height="512" viewBox="0 0 512 512" fill="none" xmlns="http://www.w3.org/2000/svg">
<path d="M437.5 386.6L306.9 256L437.5 125.4C451.6 111.3 451.6 88.5998 437.5 74.4998C423.4 60.3998 400.7 60.3998 386.6 74.4998L256 205.1L125.4 74.4998C111.3 60.3998 88.6 60.3998 74.5 74.4998C60.4 88.5998 60.4 111.3 74.5 125.4L205.1 256L74.5 386.6C60.4 400.7 60.4 423.4 74.5 437.5C88.6 451.6 111.3 451.6 125.4 437.5L256 306.9L386.6 437.5C400.7 451.6 423.4 451.6 437.5 437.5C451.5 423.4 451.5 400.6 437.5 386.6Z" fill="#1E1D80"/>
</svg>
