<svg width="1141" height="776" viewBox="0 0 1141 776" fill="none" xmlns="http://www.w3.org/2000/svg">
<g clip-path="url(#clip0_12:538)">
<path opacity="0.1" d="M468.6 764.57C545.67 721.92 633.71 708.29 719.75 726.57C841.67 752.49 994.9 742.33 1024.58 542.36C1075.27 200.84 862.85 110.7 862.85 110.7C862.85 110.7 721.59 98.8699 638.06 53.8299C519.41 -10.1701 383.79 -18.3201 264.54 35.8299C188.28 70.4299 125.48 118.61 114.75 184.76C84.75 369.76 134.02 471.69 41.85 532.08C-50.32 592.47 28.45 758.27 99.11 752.53C169.77 746.79 329.44 683.82 391.66 756.76C413.76 782.63 441.72 779.45 468.6 764.57Z" fill="#6C63FF"/>
<path opacity="0.1" d="M834.27 150.21H516.27V172.21H834.27V150.21Z" fill="#6C63FF"/>
<path opacity="0.1" d="M834.27 245.21H516.27V267.21H834.27V245.21Z" fill="#6C63FF"/>
<path opacity="0.1" d="M834.27 344.21H516.27V366.21H834.27V344.21Z" fill="#6C63FF"/>
<path opacity="0.1" d="M564.27 93.21H544.27V150.21H564.27V93.21Z" fill="#6C63FF"/>
<path opacity="0.1" d="M564.27 102.21H544.27V106.21H564.27V102.21Z" fill="#6C63FF"/>
<path opacity="0.1" d="M564.27 133.21H544.27V137.21H564.27V133.21Z" fill="#6C63FF"/>
<path opacity="0.1" d="M594.27 93.21H574.27V150.21H594.27V93.21Z" fill="#6C63FF"/>
<path opacity="0.1" d="M594.27 102.21H574.27V106.21H594.27V102.21Z" fill="#6C63FF"/>
<path opacity="0.1" d="M594.27 133.21H574.27V137.21H594.27V133.21Z" fill="#6C63FF"/>
<path opacity="0.1" d="M624.27 93.21H604.27V150.21H624.27V93.21Z" fill="#6C63FF"/>
<path opacity="0.1" d="M624.27 102.21H604.27V106.21H624.27V102.21Z" fill="#6C63FF"/>
<path opacity="0.1" d="M624.27 133.21H604.27V137.21H624.27V133.21Z" fill="#6C63FF"/>
<path opacity="0.1" d="M654.27 93.21H634.27V150.21H654.27V93.21Z" fill="#6C63FF"/>
<path opacity="0.1" d="M654.27 102.21H634.27V106.21H654.27V102.21Z" fill="#6C63FF"/>
<path opacity="0.1" d="M654.27 133.21H634.27V137.21H654.27V133.21Z" fill="#6C63FF"/>
<path opacity="0.1" d="M684.27 93.21H664.27V150.21H684.27V93.21Z" fill="#6C63FF"/>
<path opacity="0.1" d="M684.27 102.21H664.27V106.21H684.27V102.21Z" fill="#6C63FF"/>
<path opacity="0.1" d="M684.27 133.21H664.27V137.21H684.27V133.21Z" fill="#6C63FF"/>
<path opacity="0.1" d="M714.27 93.21H694.27V150.21H714.27V93.21Z" fill="#6C63FF"/>
<path opacity="0.1" d="M714.27 102.21H694.27V106.21H714.27V102.21Z" fill="#6C63FF"/>
<path opacity="0.1" d="M714.27 133.21H694.27V137.21H714.27V133.21Z" fill="#6C63FF"/>
<path opacity="0.1" d="M744.27 93.21H724.27V150.21H744.27V93.21Z" fill="#6C63FF"/>
<path opacity="0.1" d="M744.27 102.21H724.27V106.21H744.27V102.21Z" fill="#6C63FF"/>
<path opacity="0.1" d="M744.27 133.21H724.27V137.21H744.27V133.21Z" fill="#6C63FF"/>
<path opacity="0.1" d="M732.43 285.71L714.552 294.674L740.101 345.628L757.979 336.663L732.43 285.71Z" fill="#6C63FF"/>
<path opacity="0.1" d="M736.47 293.762L718.591 302.726L720.384 306.302L738.263 297.337L736.47 293.762Z" fill="#6C63FF"/>
<path opacity="0.1" d="M750.356 321.476L732.478 330.441L734.271 334.017L752.149 325.052L750.356 321.476Z" fill="#6C63FF"/>
<path opacity="0.1" d="M564.27 189.21H544.27V246.21H564.27V189.21Z" fill="#6C63FF"/>
<path opacity="0.1" d="M564.27 198.21H544.27V202.21H564.27V198.21Z" fill="#6C63FF"/>
<path opacity="0.1" d="M564.27 229.21H544.27V233.21H564.27V229.21Z" fill="#6C63FF"/>
<path opacity="0.1" d="M594.27 189.21H574.27V246.21H594.27V189.21Z" fill="#6C63FF"/>
<path opacity="0.1" d="M594.27 198.21H574.27V202.21H594.27V198.21Z" fill="#6C63FF"/>
<path opacity="0.1" d="M594.27 229.21H574.27V233.21H594.27V229.21Z" fill="#6C63FF"/>
<path opacity="0.1" d="M624.27 189.21H604.27V246.21H624.27V189.21Z" fill="#6C63FF"/>
<path opacity="0.1" d="M624.27 198.21H604.27V202.21H624.27V198.21Z" fill="#6C63FF"/>
<path opacity="0.1" d="M624.27 229.21H604.27V233.21H624.27V229.21Z" fill="#6C63FF"/>
<path opacity="0.1" d="M749.27 189.21H729.27V246.21H749.27V189.21Z" fill="#6C63FF"/>
<path opacity="0.1" d="M749.27 198.21H729.27V202.21H749.27V198.21Z" fill="#6C63FF"/>
<path opacity="0.1" d="M749.27 229.21H729.27V233.21H749.27V229.21Z" fill="#6C63FF"/>
<path opacity="0.1" d="M779.27 189.21H759.27V246.21H779.27V189.21Z" fill="#6C63FF"/>
<path opacity="0.1" d="M779.27 198.21H759.27V202.21H779.27V198.21Z" fill="#6C63FF"/>
<path opacity="0.1" d="M779.27 229.21H759.27V233.21H779.27V229.21Z" fill="#6C63FF"/>
<path opacity="0.1" d="M809.27 189.21H789.27V246.21H809.27V189.21Z" fill="#6C63FF"/>
<path opacity="0.1" d="M809.27 198.21H789.27V202.21H809.27V198.21Z" fill="#6C63FF"/>
<path opacity="0.1" d="M809.27 229.21H789.27V233.21H809.27V229.21Z" fill="#6C63FF"/>
<path opacity="0.1" d="M564.27 287.21H544.27V344.21H564.27V287.21Z" fill="#6C63FF"/>
<path opacity="0.1" d="M564.27 296.21H544.27V300.21H564.27V296.21Z" fill="#6C63FF"/>
<path opacity="0.1" d="M564.27 327.21H544.27V331.21H564.27V327.21Z" fill="#6C63FF"/>
<path opacity="0.1" d="M594.27 287.21H574.27V344.21H594.27V287.21Z" fill="#6C63FF"/>
<path opacity="0.1" d="M594.27 296.21H574.27V300.21H594.27V296.21Z" fill="#6C63FF"/>
<path opacity="0.1" d="M594.27 327.21H574.27V331.21H594.27V327.21Z" fill="#6C63FF"/>
<path opacity="0.1" d="M624.27 287.21H604.27V344.21H624.27V287.21Z" fill="#6C63FF"/>
<path opacity="0.1" d="M624.27 296.21H604.27V300.21H624.27V296.21Z" fill="#6C63FF"/>
<path opacity="0.1" d="M624.27 327.21H604.27V331.21H624.27V327.21Z" fill="#6C63FF"/>
<path opacity="0.1" d="M654.27 287.21H634.27V344.21H654.27V287.21Z" fill="#6C63FF"/>
<path opacity="0.1" d="M654.27 296.21H634.27V300.21H654.27V296.21Z" fill="#6C63FF"/>
<path opacity="0.1" d="M654.27 327.21H634.27V331.21H654.27V327.21Z" fill="#6C63FF"/>
<path opacity="0.1" d="M684.27 287.21H664.27V344.21H684.27V287.21Z" fill="#6C63FF"/>
<path opacity="0.1" d="M684.27 296.21H664.27V300.21H684.27V296.21Z" fill="#6C63FF"/>
<path opacity="0.1" d="M684.27 327.21H664.27V331.21H684.27V327.21Z" fill="#6C63FF"/>
<path opacity="0.1" d="M714.27 287.21H694.27V344.21H714.27V287.21Z" fill="#6C63FF"/>
<path opacity="0.1" d="M714.27 296.21H694.27V300.21H714.27V296.21Z" fill="#6C63FF"/>
<path opacity="0.1" d="M714.27 327.21H694.27V331.21H714.27V327.21Z" fill="#6C63FF"/>
<path opacity="0.1" d="M774.27 98.29V150.21H754.27V94.48C760.963 95.66 767.63 96.93 774.27 98.29Z" fill="#6C63FF"/>
<path opacity="0.1" d="M774.27 102.21H754.27V106.21H774.27V102.21Z" fill="#6C63FF"/>
<path opacity="0.1" d="M774.27 133.21H754.27V137.21H774.27V133.21Z" fill="#6C63FF"/>
<path opacity="0.1" d="M804.27 105.23V150.23H784.27V100.43C786.87 101 789.46 101.6 792.05 102.21C796.143 103.17 800.217 104.177 804.27 105.23Z" fill="#6C63FF"/>
<path opacity="0.1" d="M804.27 105.23V106.23H784.27V102.23H792.05C796.143 103.177 800.217 104.177 804.27 105.23Z" fill="#6C63FF"/>
<path opacity="0.1" d="M804.27 133.21H784.27V137.21H804.27V133.21Z" fill="#6C63FF"/>
<g opacity="0.1">
<path opacity="0.1" d="M664.66 225.49C664.66 225.49 658.6 223.43 655.66 228.78C654.891 230.228 654.5 231.847 654.523 233.487C654.546 235.126 654.981 236.734 655.79 238.16C657.71 241.62 661.66 246.16 669.14 245.72C675.49 245.38 677.6 240.54 678.14 236.03C678.347 234.343 678.121 232.631 677.483 231.056C676.844 229.481 675.815 228.094 674.492 227.027C673.169 225.96 671.595 225.248 669.921 224.958C668.246 224.668 666.525 224.81 664.92 225.37L664.66 225.49Z" fill="#6C63FF"/>
<path opacity="0.1" d="M657.11 238.65C656.302 237.224 655.866 235.616 655.843 233.977C655.82 232.337 656.211 230.718 656.98 229.27C659.9 223.93 665.98 225.98 665.98 225.98L666.29 225.87C668.604 225.033 671.147 225.09 673.42 226.03C672.165 225.283 670.759 224.823 669.305 224.685C667.851 224.546 666.384 224.733 665.01 225.23L664.7 225.34C664.7 225.34 658.64 223.28 655.7 228.63C654.931 230.078 654.54 231.697 654.563 233.337C654.586 234.976 655.021 236.584 655.83 238.01C657.333 240.875 659.746 243.158 662.69 244.5C660.33 243.097 658.4 241.074 657.11 238.65V238.65Z" fill="#6C63FF"/>
<path opacity="0.2" d="M661.53 228.06C661.53 228.06 663.78 229.83 669.24 228.06Z" fill="#6C63FF"/>
<path opacity="0.1" d="M661.04 215.21C661.04 215.21 664.89 225.65 664.57 228.38L667.62 228.06C667.62 228.06 662.48 218.91 663.77 215.21H661.04Z" fill="#6C63FF"/>
<path opacity="0.2" d="M661.04 215.21C661.04 215.21 664.89 225.65 664.57 228.38L667.62 228.06C667.62 228.06 662.48 218.91 663.77 215.21H661.04Z" fill="#6C63FF"/>
<path opacity="0.1" d="M676.78 216.09C676.78 216.09 670.71 212.99 668 215.55C665.29 218.11 664.87 224.66 664.87 224.66C664.87 224.66 674.76 226 676.78 216.09Z" fill="#6C63FF"/>
<path opacity="0.1" d="M676.78 216.09C676.78 216.09 670.71 212.99 668 215.55C665.29 218.11 664.87 224.66 664.87 224.66C664.87 224.66 674.76 226 676.78 216.09Z" fill="#6C63FF"/>
<path opacity="0.1" d="M664.86 224.66C664.86 224.66 666.45 217.06 676.77 216.08Z" fill="#6C63FF"/>
</g>
<g opacity="0.1">
<path opacity="0.1" d="M792.66 324.49C792.66 324.49 786.6 322.43 783.66 327.78C782.891 329.228 782.5 330.847 782.523 332.487C782.546 334.126 782.981 335.734 783.79 337.16C785.71 340.62 789.66 345.16 797.14 344.72C803.49 344.38 805.6 339.54 806.14 335.03C806.347 333.343 806.121 331.631 805.483 330.056C804.844 328.481 803.815 327.094 802.492 326.027C801.169 324.96 799.595 324.248 797.921 323.958C796.246 323.668 794.525 323.81 792.92 324.37L792.66 324.49Z" fill="#6C63FF"/>
<path opacity="0.1" d="M785.11 337.65C784.302 336.224 783.866 334.616 783.843 332.977C783.82 331.337 784.211 329.718 784.98 328.27C787.9 322.93 793.98 324.98 793.98 324.98L794.29 324.87C796.604 324.033 799.147 324.09 801.42 325.03C800.165 324.283 798.759 323.823 797.305 323.685C795.851 323.546 794.384 323.733 793.01 324.23L792.7 324.34C792.7 324.34 786.64 322.28 783.7 327.63C782.931 329.078 782.54 330.697 782.563 332.337C782.586 333.976 783.021 335.584 783.83 337.01C785.333 339.875 787.746 342.158 790.69 343.5C788.33 342.097 786.4 340.074 785.11 337.65V337.65Z" fill="#6C63FF"/>
<path opacity="0.2" d="M789.53 327.06C789.53 327.06 791.78 328.83 797.24 327.06Z" fill="#6C63FF"/>
<path opacity="0.1" d="M789.04 314.21C789.04 314.21 792.89 324.65 792.57 327.38L795.62 327.06C795.62 327.06 790.48 317.91 791.77 314.21H789.04Z" fill="#6C63FF"/>
<path opacity="0.2" d="M789.04 314.21C789.04 314.21 792.89 324.65 792.57 327.38L795.62 327.06C795.62 327.06 790.48 317.91 791.77 314.21H789.04Z" fill="#6C63FF"/>
<path opacity="0.1" d="M804.78 315.09C804.78 315.09 798.71 311.99 796 314.55C793.29 317.11 792.87 323.66 792.87 323.66C792.87 323.66 802.76 325 804.78 315.09Z" fill="#6C63FF"/>
<path opacity="0.1" d="M804.78 315.09C804.78 315.09 798.71 311.99 796 314.55C793.29 317.11 792.87 323.66 792.87 323.66C792.87 323.66 802.76 325 804.78 315.09Z" fill="#6C63FF"/>
<path opacity="0.1" d="M792.86 323.66C792.86 323.66 794.45 316.06 804.77 315.08Z" fill="#6C63FF"/>
</g>
<path opacity="0.1" d="M995.02 630.04C1024.84 630.04 1049.02 621.444 1049.02 610.84C1049.02 600.236 1024.84 591.64 995.02 591.64C965.197 591.64 941.02 600.236 941.02 610.84C941.02 621.444 965.197 630.04 995.02 630.04Z" fill="black"/>
<path d="M995.06 611C995.06 611 1025.87 506.41 989.28 429.42C973.93 397.11 968.83 360.84 975.92 325.78C979.314 309.149 984.224 292.865 990.59 277.13" stroke="#535461" stroke-width="2" stroke-miterlimit="10"/>
<path d="M967.83 228.47C967.83 241.29 991.04 278.47 991.04 278.47C991.04 278.47 1014.25 241.3 1014.25 228.47C1014.25 222.314 1011.8 216.411 1007.45 212.058C1003.1 207.705 997.196 205.26 991.04 205.26C984.884 205.26 978.981 207.705 974.628 212.058C970.275 216.411 967.83 222.314 967.83 228.47Z" fill="#6C63FF"/>
<path d="M929.46 299.47C936.46 310.23 976.11 328.82 976.11 328.82C976.11 328.82 975.39 285 968.42 274.24C966.763 271.679 964.619 269.47 962.108 267.738C959.598 266.006 956.771 264.786 953.788 264.146C950.806 263.507 947.727 263.461 944.728 264.012C941.728 264.562 938.866 265.698 936.305 267.355C933.744 269.012 931.535 271.156 929.803 273.667C928.071 276.177 926.851 279.004 926.211 281.987C925.572 284.969 925.526 288.048 926.077 291.047C926.627 294.047 927.763 296.909 929.42 299.47H929.46Z" fill="#6C63FF"/>
<path d="M931.11 420.81C942.56 426.58 986.2 422.59 986.2 422.59C986.2 422.59 963.46 385.13 952.01 379.36C949.289 377.988 946.323 377.165 943.284 376.939C940.244 376.712 937.189 377.087 934.295 378.041C931.4 378.995 928.721 380.51 926.412 382.499C924.102 384.489 922.207 386.913 920.835 389.635C919.463 392.357 918.64 395.322 918.414 398.362C918.187 401.401 918.562 404.456 919.516 407.351C920.47 410.245 921.985 412.924 923.974 415.233C925.964 417.543 928.389 419.438 931.11 420.81V420.81Z" fill="#6C63FF"/>
<path d="M953.11 512.33C963.42 519.95 1007.11 523.4 1007.11 523.4C1007.11 523.4 991.03 482.63 980.72 475.01C978.27 473.197 975.486 471.885 972.528 471.147C969.571 470.41 966.497 470.263 963.482 470.714C960.467 471.165 957.571 472.205 954.958 473.775C952.346 475.345 950.068 477.415 948.255 479.865C946.442 482.315 945.13 485.099 944.393 488.057C943.655 491.014 943.508 494.088 943.959 497.103C944.41 500.118 945.45 503.014 947.02 505.627C948.59 508.239 950.66 510.517 953.11 512.33V512.33Z" fill="#6C63FF"/>
<path d="M1024.85 331.3C1015.66 340.23 972.85 349.48 972.85 349.48C972.85 349.48 983.34 306.93 992.53 298C994.713 295.859 997.297 294.171 1000.13 293.032C1002.97 291.893 1006.01 291.326 1009.06 291.363C1012.12 291.4 1015.14 292.041 1017.95 293.249C1020.76 294.457 1023.3 296.208 1025.43 298.401C1027.56 300.595 1029.24 303.187 1030.36 306.03C1031.49 308.873 1032.04 311.91 1031.99 314.967C1031.94 318.024 1031.28 321.041 1030.06 323.844C1028.84 326.647 1027.07 329.181 1024.87 331.3H1024.85Z" fill="#6C63FF"/>
<path d="M1049.11 438.66C1037.66 444.43 994.02 440.44 994.02 440.44C994.02 440.44 1016.76 402.98 1028.21 397.21C1030.93 395.838 1033.9 395.015 1036.94 394.789C1039.98 394.562 1043.03 394.937 1045.93 395.891C1048.82 396.845 1051.5 398.36 1053.81 400.349C1056.12 402.339 1058.01 404.763 1059.39 407.485C1060.76 410.207 1061.58 413.172 1061.81 416.212C1062.03 419.251 1061.66 422.306 1060.7 425.201C1059.75 428.095 1058.23 430.774 1056.25 433.083C1054.26 435.393 1051.83 437.288 1049.11 438.66V438.66Z" fill="#6C63FF"/>
<path d="M1058.45 546.25C1048.14 553.87 1004.45 557.32 1004.45 557.32C1004.45 557.32 1020.53 516.55 1030.84 508.93C1033.29 507.077 1036.08 505.728 1039.05 504.961C1042.02 504.193 1045.12 504.024 1048.16 504.461C1051.2 504.899 1054.12 505.935 1056.75 507.509C1059.39 509.084 1061.69 511.165 1063.51 513.633C1065.34 516.102 1066.65 518.908 1067.39 521.889C1068.12 524.87 1068.26 527.967 1067.79 531C1067.31 534.034 1066.24 536.944 1064.64 539.561C1063.04 542.179 1060.93 544.452 1058.44 546.25H1058.45Z" fill="#6C63FF"/>
<path opacity="0.1" d="M860.62 574.84C890.443 574.84 914.62 566.244 914.62 555.64C914.62 545.036 890.443 536.44 860.62 536.44C830.797 536.44 806.62 545.036 806.62 555.64C806.62 566.244 830.797 574.84 860.62 574.84Z" fill="black"/>
<path d="M858.43 558.37C858.43 558.37 872.86 509.37 855.72 473.3C848.434 458.217 846.237 441.178 849.46 424.74C851.052 416.949 853.355 409.321 856.34 401.95" stroke="#535461" stroke-width="2" stroke-miterlimit="10"/>
<path d="M845.67 379.15C845.67 385.15 856.54 402.57 856.54 402.57C856.54 402.57 867.41 385.15 867.41 379.15C867.41 376.266 866.264 373.5 864.225 371.46C862.186 369.421 859.419 368.275 856.535 368.275C853.651 368.275 850.885 369.421 848.845 371.46C846.806 373.5 845.66 376.266 845.66 379.15H845.67Z" fill="#6C63FF"/>
<path d="M827.7 412.41C830.96 417.41 849.56 426.16 849.56 426.16C849.56 426.16 849.22 405.63 845.96 400.59C845.184 399.391 844.179 398.357 843.003 397.546C841.827 396.735 840.503 396.164 839.107 395.865C837.71 395.566 836.268 395.545 834.864 395.803C833.459 396.062 832.119 396.594 830.92 397.37C829.721 398.146 828.687 399.151 827.876 400.327C827.065 401.503 826.494 402.827 826.195 404.223C825.896 405.62 825.875 407.062 826.133 408.466C826.392 409.871 826.924 411.211 827.7 412.41V412.41Z" fill="#6C63FF"/>
<path d="M828.48 469.26C833.84 471.96 854.29 470.1 854.29 470.1C854.29 470.1 843.64 452.55 838.29 449.84C837.015 449.197 835.626 448.812 834.202 448.706C832.778 448.6 831.347 448.776 829.99 449.223C827.251 450.126 824.983 452.08 823.685 454.655C822.387 457.23 822.165 460.216 823.068 462.955C823.971 465.694 825.925 467.962 828.5 469.26H828.48Z" fill="#6C63FF"/>
<path d="M838.76 512.14C843.59 515.71 864.06 517.33 864.06 517.33C864.06 517.33 856.52 498.23 851.7 494.66C850.552 493.811 849.247 493.197 847.861 492.852C846.476 492.507 845.035 492.438 843.623 492.65C842.211 492.862 840.854 493.35 839.63 494.086C838.406 494.822 837.339 495.792 836.49 496.94C835.641 498.088 835.027 499.393 834.682 500.779C834.337 502.165 834.268 503.605 834.48 505.017C834.692 506.43 835.18 507.786 835.916 509.01C836.652 510.234 837.622 511.301 838.77 512.15L838.76 512.14Z" fill="#6C63FF"/>
<path d="M872.39 427.33C868.08 431.51 848.01 435.85 848.01 435.85C848.01 435.85 852.93 415.91 857.23 411.73C859.298 409.721 862.08 408.616 864.964 408.658C867.847 408.7 870.596 409.886 872.605 411.955C874.614 414.024 875.719 416.806 875.677 419.689C875.634 422.572 874.448 425.321 872.38 427.33H872.39Z" fill="#6C63FF"/>
<path d="M883.78 477.63C878.42 480.33 857.97 478.47 857.97 478.47C857.97 478.47 868.62 460.92 873.97 458.21C876.545 456.912 879.531 456.69 882.269 457.593C885.008 458.496 887.277 460.45 888.575 463.025C889.873 465.6 890.095 468.586 889.192 471.325C888.289 474.064 886.335 476.332 883.76 477.63H883.78Z" fill="#6C63FF"/>
<path d="M888.11 528C883.28 531.57 862.81 533.19 862.81 533.19C862.81 533.19 870.35 514.09 875.17 510.52C876.318 509.67 877.622 509.055 879.007 508.709C880.393 508.364 881.833 508.294 883.245 508.505C884.658 508.716 886.015 509.203 887.239 509.938C888.463 510.673 889.53 511.642 890.38 512.79C891.23 513.938 891.845 515.242 892.191 516.627C892.536 518.013 892.606 519.453 892.395 520.865C892.184 522.277 891.697 523.635 890.962 524.859C890.227 526.083 889.258 527.15 888.11 528Z" fill="#6C63FF"/>
<path d="M1138.33 655.85L828.69 491.6H763.76L780.56 351.76C780.928 348.699 780.681 345.595 779.834 342.631C778.988 339.666 777.559 336.901 775.63 334.495C773.702 332.09 771.313 330.093 768.603 328.623C765.893 327.152 762.918 326.237 759.85 325.93L758.11 326H757.94L521.73 329.59C515.683 329.163 509.682 330.904 504.804 334.501C499.925 338.099 496.488 343.317 495.11 349.22L484.11 429.58L482.52 427.15L481.75 425.98C487.56 422.2 476.1 399.73 466.39 382.98L465.51 381.46C471.67 378.89 478.51 376.46 478.51 376.46L463.36 367C463.36 367 449.42 346.82 434.58 330.45C444.58 267.83 423.46 195.45 423.21 194.45L422.65 194.6C425.582 189.853 427.127 184.38 427.11 178.8V178.8C427.112 174.55 426.21 170.348 424.466 166.473C422.721 162.597 420.173 159.137 416.99 156.32C416.4 150.96 415.55 145.44 414.33 139.63C414.11 138.63 413.88 137.52 413.63 136.46C412.49 131.46 411.34 126.46 409.83 121.56C408.783 118.067 407.483 114.654 405.94 111.35C398.05 94.6801 381.82 82.7601 364.04 78.5601C354.89 76.4001 345.51 79.7501 336.97 78.1501C332.67 77.3601 328.82 73.2301 324.63 71.5601C319.32 69.4401 313.57 68.4501 307.95 67.5601C300.95 66.3901 293.68 65.2301 286.71 66.7501C275.21 69.2501 266.44 78.5701 259.99 88.4101C253.54 98.2501 248.53 109.15 240.56 117.81C235.23 123.61 228.67 128.27 223.92 134.55C216.92 143.79 214.49 155.55 212.24 166.97C209.46 181.02 206.68 195.27 206.74 209.54C206.74 212.85 206.79 216.17 207.08 219.49C207.81 228.01 209.75 236.41 210.21 244.94C210.21 245.86 210.28 246.78 210.3 247.7C210.2 263.31 205.59 278.7 201.01 293.7C199.55 298.47 198.07 303.28 196.34 307.98C187.14 308.76 178.34 310.6 171.63 314.22C147.11 327.34 128.24 356.6 128.24 356.6L92.3698 389.6C92.3698 389.6 106.53 396.21 113.14 407.54C113.377 407.94 113.648 408.318 113.95 408.67L113.43 409.87L92.3698 458.51C92.3698 458.51 105.59 467.95 125.37 466.06C128.585 465.658 131.847 465.896 134.97 466.76C134.97 467.36 134.91 467.97 134.89 468.61C133.68 496.44 133.04 557.42 147.44 598.61L114.9 636.61L49.8998 655.86L47.0698 705.86H1140.22L1138.33 655.85ZM200.84 469.4C203.628 469.968 206.346 470.833 208.95 471.98V506.74C207.23 494.46 204.84 481.88 201.51 471.42C201.3 470.74 201.11 470.07 200.84 469.4ZM388.53 536.29C388.53 536.17 388.53 536.05 388.53 535.93C388.57 534.716 388.734 533.51 389.02 532.33C389.426 530.501 390.329 528.819 391.63 527.47C394.04 525.06 396.53 522.47 399.02 519.66C400.553 523.617 402.766 527.276 405.56 530.47C408.76 534.04 415.91 537.25 425.95 540.15C413.55 538.226 401.061 536.938 388.53 536.29V536.29ZM470.14 531.49L437.46 541.16C422.01 537.7 411.02 533.74 406.95 529.16C404.103 525.877 401.891 522.093 400.43 518C412.09 504.48 423.43 486.29 426.03 461.45C426.1 460.8 426.15 460.13 426.21 459.45C429.755 457.435 433.103 455.091 436.21 452.45L436.8 453.83C445.587 473.809 458.015 491.979 473.45 507.41L470.14 531.49ZM421.7 196.06C424.27 205.33 441.7 270.96 432.96 328.67C427.52 322.81 422.03 317.57 417.11 314.12C415.945 313.314 414.725 312.589 413.46 311.95C412.37 301.37 411.87 290.4 411.79 279.53C411.89 266.07 412.69 252.72 413.79 240.02C414.98 226.56 416.38 213.72 417.25 201.09C418.916 199.584 420.408 197.897 421.7 196.06V196.06Z" fill="url(#paint0_linear_12:538)"/>
<path d="M405.75 212.22H397.22V153.22H405.75C412.264 153.22 418.511 155.808 423.117 160.413C427.722 165.019 430.31 171.266 430.31 177.78V187.6C430.318 190.83 429.688 194.03 428.458 197.017C427.227 200.004 425.419 202.718 423.138 205.005C420.856 207.292 418.146 209.107 415.163 210.345C412.179 211.583 408.98 212.22 405.75 212.22V212.22Z" fill="#DFE6F5"/>
<path d="M396.01 212.22H398.43C401.76 212.22 404.46 209.52 404.46 206.19V159.3C404.46 155.97 401.76 153.27 398.43 153.27H396.01C392.68 153.27 389.98 155.97 389.98 159.3V206.19C389.98 209.52 392.68 212.22 396.01 212.22Z" fill="#535461"/>
<g opacity="0.1">
<path opacity="0.1" d="M405.75 212.22H397.22V153.22H405.75C412.264 153.22 418.511 155.808 423.117 160.413C427.722 165.019 430.31 171.266 430.31 177.78V187.6C430.318 190.83 429.688 194.03 428.458 197.017C427.227 200.004 425.419 202.718 423.138 205.005C420.856 207.292 418.146 209.107 415.163 210.345C412.179 211.583 408.98 212.22 405.75 212.22V212.22Z" fill="black"/>
<path opacity="0.1" d="M396.01 212.22H398.43C401.76 212.22 404.46 209.52 404.46 206.19V159.3C404.46 155.97 401.76 153.27 398.43 153.27H396.01C392.68 153.27 389.98 155.97 389.98 159.3V206.19C389.98 209.52 392.68 212.22 396.01 212.22Z" fill="black"/>
</g>
<path d="M409.81 184.45H260.72V339.1H409.81V184.45Z" fill="#865A61"/>
<path opacity="0.1" d="M409.81 163.15H260.72V317.8H409.81V163.15Z" fill="black"/>
<path d="M404.72 312.71L395.72 378.11L391.48 408.85L389.92 420.14L376.85 445.62L352.85 492.38L306.55 497.94L225.11 383.09C225.11 383.09 182.47 301.6 247.3 309C283.65 313.16 292.3 280.62 292.95 251.23C293.113 236.432 291.773 221.657 288.95 207.13L353.77 238.62C352.263 245.64 351.13 252.09 350.37 257.97C347.21 282.03 349.83 297.03 355.31 306.12C369.9 330.33 404.72 312.71 404.72 312.71Z" fill="#FDC2CC"/>
<path opacity="0.1" d="M353.79 238.63C352.284 245.65 351.15 252.1 350.39 257.98C343.664 259.894 336.704 260.864 329.71 260.86C316.833 260.881 304.169 257.571 292.95 251.25C293.114 236.453 291.773 221.677 288.95 207.15L353.79 238.63Z" fill="black"/>
<path d="M329.71 259C371.137 259 404.72 225.417 404.72 183.99C404.72 142.563 371.137 108.98 329.71 108.98C288.283 108.98 254.7 142.563 254.7 183.99C254.7 225.417 288.283 259 329.71 259Z" fill="#FDC2CC"/>
<path d="M429.73 610.9L121.35 635L171.35 576.66C225 543.88 224.54 498.82 217.41 470.87C215.197 461.913 211.854 453.273 207.46 445.16L314.05 445.66H314.95L323.71 465.57L324.11 466.47L330.63 481.28L352.85 441.46L360.58 429L364.9 422C364.9 422 428.8 407.18 429.72 445.15C429.831 449.51 429.66 453.872 429.21 458.21C426.03 488.77 409.31 509.09 395.46 522.94C379.72 538.67 429.73 610.9 429.73 610.9Z" fill="#EC7580"/>
<path d="M392.9 529.54C390.64 538.54 396.34 554.01 403.9 569.2C367.65 573.1 327.9 571.07 327.9 571.07L287.11 582.19L172.29 615.53C167.29 609.06 163.29 600.93 159.98 591.77L171.36 578.49C207.17 556.61 218.87 529.26 220.58 505.18C221.26 494.251 220.194 483.283 217.42 472.69C215.209 463.74 211.869 455.107 207.48 447L314.07 447.5H314.97L323.73 467.41L324.13 468.31L330.65 483.12L352.87 443.3L360.58 430.84L364.9 423.84C364.9 423.84 428.8 409 429.73 447C429.841 451.36 429.67 455.722 429.22 460.06C426.04 490.62 409.32 510.94 395.47 524.79C394.194 526.108 393.305 527.751 392.9 529.54V529.54Z" fill="#EC7580"/>
<path d="M633.46 577.56C631.61 599.78 577.9 570.15 577.9 570.15C577.9 570.15 561.23 564.59 504.74 528.48C476.06 510.151 453.444 483.746 439.74 452.59C437.579 447.774 435.771 442.808 434.33 437.73L473.25 409L484.6 426.35L522.33 484L577.89 521C577.89 521 635.31 555.34 633.46 577.56Z" fill="#FDC2CC"/>
<path d="M1127.96 650.72H60.23L167.12 619.09L434.34 540.01L604.74 489.58H824.22L1127.96 650.72Z" fill="#CBCDDA"/>
<path d="M60.2302 650.72L57.4502 699.8H1129.81L1127.96 650.72H60.2302Z" fill="#CBCDDA"/>
<path opacity="0.1" d="M60.2302 650.72L57.4502 699.8H1129.81L1127.96 650.72H60.2302Z" fill="black"/>
<path d="M340.16 581.31L565.85 558.12L568.63 602.57L465.47 612.8C458.354 613.378 451.191 612.821 444.25 611.15L339.97 584.21C339.637 584.123 339.346 583.923 339.145 583.644C338.944 583.365 338.846 583.025 338.868 582.682C338.891 582.339 339.032 582.014 339.268 581.764C339.503 581.513 339.819 581.353 340.16 581.31V581.31Z" fill="#535461"/>
<path opacity="0.2" d="M340.16 581.31L565.85 558.12L568.63 602.57L465.47 612.8C458.354 613.378 451.191 612.821 444.25 611.15L339.97 584.21C339.637 584.123 339.346 583.923 339.145 583.644C338.944 583.365 338.846 583.025 338.868 582.682C338.891 582.339 339.032 582.014 339.268 581.764C339.503 581.513 339.819 581.353 340.16 581.31V581.31Z" fill="black"/>
<path d="M340.16 580.38L567.71 557.19L570.49 601.64L467.32 610C460.209 610.586 453.049 610.04 446.11 608.38L339.97 583.29C339.631 583.208 339.332 583.009 339.126 582.728C338.919 582.447 338.818 582.103 338.841 581.755C338.864 581.407 339.008 581.079 339.25 580.827C339.491 580.576 339.813 580.417 340.16 580.38V580.38Z" fill="#535461"/>
<path opacity="0.3" d="M394.11 582L514.43 569.74L515.9 593.24L461.35 597.67C457.587 597.976 453.8 597.683 450.13 596.8L394.01 583.53C393.834 583.485 393.679 583.38 393.572 583.232C393.465 583.085 393.413 582.905 393.425 582.724C393.437 582.542 393.512 582.37 393.637 582.238C393.762 582.106 393.929 582.022 394.11 582Z" fill="white"/>
<path opacity="0.1" d="M484.6 426.37C483.87 427.37 482.6 427.82 480.66 427.54C462.14 424.76 440.84 451.62 440.84 451.62C440.84 451.62 440.46 451.98 439.77 452.62C437.609 447.804 435.801 442.838 434.36 437.76L473.25 409L484.6 426.37Z" fill="black"/>
<path opacity="0.1" d="M429.22 460C420.51 464.85 408.52 468.33 399.17 459C383.02 442.85 354.71 445 352.95 445.1C355.84 444.7 358.4 438.76 360.58 430.8L364.9 423.8C364.9 423.8 428.8 409 429.73 447C429.838 451.34 429.668 455.682 429.22 460Z" fill="black"/>
<path opacity="0.1" d="M395.7 378.11L389.9 420.11L376.83 445.59C368.73 443.516 360.354 442.73 352.01 443.26C361.22 441.99 367.17 384.44 367.17 384.44L367.7 384.32L395.7 378.11Z" fill="black"/>
<path d="M480.66 425.69C462.14 422.91 440.84 449.77 440.84 449.77C440.84 449.77 415.84 473.85 399.17 457.18C383.02 441.03 354.71 443.18 352.95 443.28C362.16 442 368.11 384.45 368.11 384.45L368.64 384.33L457.51 364.57C457.51 364.57 462.81 372.69 468.79 383.03C479.58 401.66 492.58 427.48 480.66 425.69Z" fill="#EC7580"/>
<path opacity="0.1" d="M458.43 388.65C459.36 390.5 443.61 399.76 436.21 396.98C428.81 394.2 410.28 408.98 408.43 410.87C406.58 412.76 364.91 408.09 364.91 408.09C366.639 400.254 367.885 392.319 368.64 384.33L457.51 364.57C457.51 364.57 462.81 372.69 468.79 383.03C463.26 385.3 457.98 387.74 458.43 388.65Z" fill="black"/>
<path opacity="0.1" d="M404.72 312.71L395.72 378.11L391.48 408.85C379.06 407.92 364 406.25 364 406.25C364 406.25 379.74 340.5 353.81 306.25C353.81 306.25 354.36 306.25 355.35 306.15C369.9 330.33 404.72 312.71 404.72 312.71Z" fill="black"/>
<path d="M354.72 306.23C354.72 306.23 401.95 302.53 420.47 315.49C438.99 328.45 465.85 367.35 465.85 367.35L480.67 376.61C480.67 376.61 457.52 384.94 458.45 386.8C459.38 388.66 443.63 397.91 436.23 395.13C428.83 392.35 410.3 407.13 408.45 409.02C406.6 410.91 364.93 406.24 364.93 406.24C364.93 406.24 380.65 340.49 354.72 306.23Z" fill="#EC7580"/>
<path d="M695.94 561.35C685.22 561.09 433.19 554.55 409.13 527.71C383.51 499.13 408.38 416.78 429.32 357.32C452.11 292.59 424.94 199.64 424.67 198.58L426.46 198.11C426.74 199.18 454.05 292.67 431.07 357.93C398.5 450.44 391.77 505.57 410.51 526.47C434.05 552.72 693.37 559.47 695.99 559.47L695.94 561.35Z" fill="#DFE6F5"/>
<path d="M521.7 330.61L754.84 327.07C757.845 327.377 760.76 328.279 763.412 329.724C766.065 331.169 768.403 333.129 770.291 335.488C772.178 337.847 773.576 340.559 774.403 343.464C775.231 346.369 775.471 349.411 775.11 352.41L748.66 572.61C748.028 577.9 745.558 582.801 741.681 586.456C737.805 590.111 732.768 592.289 727.45 592.61L489.16 607.36C485.786 607.562 482.409 607.01 479.276 605.743C476.142 604.476 473.33 602.526 471.045 600.036C468.759 597.546 467.058 594.577 466.064 591.347C465.07 588.116 464.809 584.704 465.3 581.36L496.94 349.94C497.788 344.152 500.835 338.913 505.446 335.313C510.057 331.713 515.879 330.029 521.7 330.61Z" fill="#535461"/>
<path opacity="0.2" d="M521.7 330.61L754.84 327.07C757.845 327.377 760.76 328.279 763.412 329.724C766.065 331.169 768.403 333.129 770.291 335.488C772.178 337.847 773.576 340.559 774.403 343.464C775.231 346.369 775.471 349.411 775.11 352.41L748.66 572.61C748.028 577.9 745.558 582.801 741.681 586.456C737.805 590.111 732.768 592.289 727.45 592.61L489.16 607.36C485.786 607.562 482.409 607.01 479.276 605.743C476.142 604.476 473.33 602.526 471.045 600.036C468.759 597.546 467.058 594.577 466.064 591.347C465.07 588.116 464.809 584.704 465.3 581.36L496.94 349.94C497.788 344.152 500.835 338.913 505.446 335.313C510.057 331.713 515.879 330.029 521.7 330.61Z" fill="black"/>
<path d="M523.55 330.61L756.69 327.07C759.699 327.372 762.617 328.27 765.275 329.713C767.932 331.157 770.275 333.115 772.166 335.475C774.057 337.835 775.459 340.548 776.289 343.456C777.119 346.363 777.361 349.408 777 352.41L750.55 572.61C749.917 577.9 747.448 582.801 743.571 586.456C739.695 590.111 734.658 592.289 729.34 592.61L491.02 607.36C487.646 607.562 484.269 607.01 481.135 605.743C478.002 604.476 475.19 602.526 472.905 600.036C470.619 597.546 468.918 594.577 467.924 591.347C466.93 588.116 466.669 584.704 467.16 581.36L498.8 349.94C499.648 344.154 502.693 338.916 507.302 335.317C511.911 331.717 517.73 330.031 523.55 330.61V330.61Z" fill="#535461"/>
<path opacity="0.3" d="M637.62 466.89C643.756 466.89 648.73 461.916 648.73 455.78C648.73 449.644 643.756 444.67 637.62 444.67C631.484 444.67 626.51 449.644 626.51 455.78C626.51 461.916 631.484 466.89 637.62 466.89Z" fill="white"/>
<path opacity="0.1" d="M403.9 569.21C367.65 573.11 327.9 571.08 327.9 571.08L287.11 582.19L172.29 615.53C167.29 609.06 163.29 600.93 159.98 591.77L171.36 578.49C207.17 556.61 218.87 529.26 220.58 505.18C223.64 529.13 224.15 550.7 224.15 550.7L270.45 546.07L337.72 530.07C342.352 528.968 347.098 528.414 351.86 528.42C360.62 528.42 376.21 528.61 392.86 529.51C390.64 538.52 396.34 554 403.9 569.21Z" fill="black"/>
<path opacity="0.1" d="M454.73 557.19C433.43 582.19 324.16 576.64 324.16 576.64L283.41 587.75L168.58 621.08C168.08 620.43 167.58 619.77 167.12 619.08L434.35 540C451.41 543.44 461.88 548.8 454.73 557.19Z" fill="black"/>
<path d="M454.73 555.34C433.43 580.34 324.16 574.79 324.16 574.79L283.41 585.89L168.58 619.23C141.58 584.23 142.18 500.82 143.65 467.08C144.05 458.02 144.5 452.54 144.5 452.54C144.5 452.54 183.39 428.46 200.99 452.54C204.13 456.83 206.76 462.83 208.99 469.79C219.2 501.88 220.45 554.4 220.45 554.4L266.75 549.77L334.02 533.77C338.656 532.667 343.405 532.113 348.17 532.12C376.05 532.2 473.01 533.88 454.73 555.34Z" fill="#FDC2CC"/>
<path opacity="0.1" d="M208.98 469.8C203.07 468.52 195.9 468.8 186.18 472.92C166.73 481.25 151.92 479.4 151.92 479.4C151.92 479.4 153.11 469.95 143.66 467.08C144.06 458.02 144.51 452.54 144.51 452.54C144.51 452.54 183.4 428.46 201 452.54C204.11 456.83 206.76 462.83 208.98 469.8Z" fill="black"/>
<path opacity="0.1" d="M324.11 468.29C323.49 468.42 315.16 469.99 299.11 466.43C282.44 462.73 275.96 470.13 266.7 473.84C257.44 477.55 233.41 479.4 224.11 475.7C221.92 474.82 219.72 473.7 217.39 472.7C215.189 463.748 211.859 455.112 207.48 447L314.07 447.5L323.73 467.41L324.11 468.29Z" fill="black"/>
<path d="M324.11 466.44C324.11 466.44 315.78 468.29 299.11 464.59C282.44 460.89 275.96 468.29 266.7 472C257.44 475.71 233.36 477.56 224.1 473.85C214.84 470.14 205.58 462.74 186.1 471.07C166.62 479.4 151.84 477.55 151.84 477.55C151.84 477.55 153.69 462.73 134.25 464.55C114.81 466.37 101.84 457.14 101.84 457.14L122.5 409.42L128.7 395.09L283.64 384.5H284.38L324.11 466.44Z" fill="#EC7580"/>
<path opacity="0.1" d="M299.11 422C288.92 405.33 235.21 420.15 235.21 420.15C235.21 420.15 209.28 427.56 203.72 413.67C198.16 399.78 158.4 409 158.4 409C158.4 409 129.55 419.82 122.57 409.44L128.77 395.11L283.64 384.5L299.11 422Z" fill="black"/>
<path d="M254.7 312.71C254.7 312.71 203.77 302.52 179.7 315.49C155.63 328.46 137.11 357.16 137.11 357.16L101.91 389.57C101.91 389.57 115.8 396.05 122.28 407.16C128.76 418.27 158.4 407.16 158.4 407.16C158.4 407.16 198.22 397.9 203.78 411.79C209.34 425.68 235.27 418.27 235.27 418.27C235.27 418.27 288.98 403.45 299.17 420.12L254.7 312.71Z" fill="#EC7580"/>
<path opacity="0.1" d="M313.41 75.43C306.51 74.27 299.41 73.14 292.57 74.63C281.29 77.08 272.69 86.23 266.36 95.87C260.03 105.51 255.11 116.21 247.3 124.7C242.07 130.39 235.64 134.96 230.98 141.12C224.12 150.19 221.73 161.76 219.52 172.92C216.28 189.3 213.03 205.92 214.46 222.59C215.18 230.95 217.08 239.18 217.53 247.59C218.44 264.48 213.45 281.06 208.53 297.24C205.12 308.42 201.6 319.81 194.86 329.36C190.39 335.69 184.66 340.99 179.2 346.48C177.882 347.6 176.891 349.054 176.33 350.69C175.15 355.47 180.92 358.69 185.33 360.85C198.82 367.58 207.67 380.71 218.16 391.53C228.65 402.35 243.66 411.64 258.09 407.3C262.37 406.01 266.43 403.56 270.89 403.64C273.89 403.69 276.77 404.91 279.62 405.91C286.71 408.4 294.176 409.651 301.69 409.61C303.35 409.752 305.015 409.404 306.48 408.61C308.71 407.1 309.14 404.06 309.36 401.38C310.77 384.56 312.17 367.68 311.22 350.83C309.07 312.67 273.81 268.53 287.22 232.72C293.05 217.1 303.71 203.66 309.61 188.07C315.83 171.64 337.76 158.3 342.11 141.27C342.6 139.35 343.27 137.27 344.95 136.27C347.26 134.85 350.27 136.09 352.5 137.63C365.12 146.33 369.23 162.69 373.82 177.31C377.519 189.085 382.102 200.565 387.53 211.65C390.53 217.65 396.97 224.6 402.61 220.96C399.77 246.24 383.37 268.32 379.66 293.48C376.04 318 384.81 343.06 381.41 367.6C379.172 383.4 372.017 398.094 360.96 409.6C373.438 412.079 386.27 412.194 398.79 409.94C411.48 407.65 425.06 401.64 429.64 389.58C434.64 376.31 426.91 362.07 422.98 348.43C413.55 315.64 414.28 276.86 417.27 242.87C420.35 207.92 424.97 177.32 417.14 143.12C415.22 134.73 413.27 126.27 409.59 118.49C401.85 102.14 385.93 90.44 368.48 86.32C359.48 84.2 350.3 87.49 341.92 85.93C337.7 85.14 333.92 81.1 329.82 79.46C324.56 77.31 318.92 76.35 313.41 75.43Z" fill="black"/>
<path d="M429.59 387.66C425.01 399.72 411.43 405.73 398.73 408.02C386.209 410.269 373.378 410.154 360.9 407.68C371.954 396.172 379.108 381.479 381.35 365.68C384.76 341.13 375.99 316.07 379.6 291.56C383.31 266.39 399.71 244.31 402.55 219.03C396.91 222.67 390.42 215.75 387.46 209.72C382.034 198.634 377.451 187.155 373.75 175.38C369.16 160.76 365.05 144.38 352.43 135.7C350.2 134.16 347.19 132.92 344.88 134.35C343.19 135.35 342.53 137.46 342.04 139.35C337.7 156.35 315.76 169.71 309.55 186.14C303.64 201.73 292.98 215.14 287.15 230.79C273.79 266.59 309.05 310.73 311.15 348.89C312.09 365.74 310.69 382.63 309.29 399.44C309.06 402.13 308.63 405.17 306.4 406.68C304.939 407.473 303.277 407.821 301.62 407.68C294.127 407.725 286.681 406.48 279.61 404C276.76 403 273.9 401.78 270.88 401.73C266.42 401.66 262.36 404.11 258.08 405.39C243.65 409.73 228.63 400.44 218.15 389.62C207.67 378.8 198.79 365.69 185.31 359C180.9 356.8 175.13 353.62 176.31 348.83C176.875 347.199 177.866 345.749 179.18 344.63C184.64 339.14 190.38 333.83 194.85 327.51C201.59 317.96 205.1 306.57 208.52 295.39C213.46 279.21 218.45 262.63 217.52 245.74C217.08 237.37 215.18 229.14 214.45 220.74C213.01 204.1 216.27 187.46 219.51 171.08C221.71 159.92 224.1 148.35 230.97 139.28C235.64 133.12 242.06 128.55 247.3 122.86C255.12 114.37 260.02 103.67 266.36 94.02C272.7 84.37 281.3 75.23 292.58 72.78C299.41 71.29 306.52 72.43 313.42 73.58C318.93 74.51 324.57 75.47 329.78 77.58C333.89 79.22 337.67 83.27 341.88 84.04C350.26 85.61 359.47 82.32 368.44 84.44C385.89 88.55 401.81 100.25 409.55 116.6C411.064 119.836 412.341 123.178 413.37 126.6C414.85 131.4 415.98 136.31 417.1 141.21C417.34 142.21 417.57 143.29 417.79 144.32C424.64 176.88 420.22 200.59 417.23 234.46C414.24 268.33 413.51 313.71 422.93 346.46C426.86 360.14 434.63 374.39 429.59 387.66Z" fill="#865A61"/>
<path opacity="0.05" d="M322.77 446.53C322.77 446.53 330.18 458.53 330.18 466.9C330.18 466.9 335.74 446.53 340.37 446.53" fill="black"/>
<path d="M305.17 449.3V510.42C305.185 520.404 301.822 530.099 295.63 537.93C294.572 539.266 293.441 540.541 292.24 541.75C288.11 545.898 283.201 549.19 277.796 551.436C272.39 553.682 266.594 554.838 260.74 554.838C254.886 554.838 249.09 553.682 243.685 551.436C238.279 549.19 233.37 545.898 229.24 541.75C228.04 540.541 226.908 539.266 225.85 537.93C219.658 530.099 216.296 520.404 216.31 510.42V449.3C216.289 438.914 219.925 428.853 226.58 420.88C227.762 419.465 229.034 418.129 230.39 416.88C238.621 409.163 249.482 404.868 260.765 404.868C272.049 404.868 282.909 409.163 291.14 416.88C291.5 417.2 291.85 417.55 292.2 417.88C293.2 418.88 294.07 419.88 294.95 420.88C301.587 428.86 305.205 438.921 305.17 449.3V449.3Z" fill="#DFE6F5"/>
<path opacity="0.1" d="M305.17 449.3V510.42C305.185 520.404 301.822 530.099 295.63 537.93C294.572 539.266 293.441 540.541 292.24 541.75C288.11 545.898 283.201 549.19 277.796 551.436C272.39 553.682 266.594 554.838 260.74 554.838C254.886 554.838 249.09 553.682 243.685 551.436C238.279 549.19 233.37 545.898 229.24 541.75C228.04 540.541 226.908 539.266 225.85 537.93C219.658 530.099 216.296 520.404 216.31 510.42V449.3C216.289 438.914 219.925 428.853 226.58 420.88C227.762 419.465 229.034 418.129 230.39 416.88C238.621 409.163 249.482 404.868 260.765 404.868C272.049 404.868 282.909 409.163 291.14 416.88C291.5 417.2 291.85 417.55 292.2 417.88C293.2 418.88 294.07 419.88 294.95 420.88C301.587 428.86 305.205 438.921 305.17 449.3V449.3Z" fill="black"/>
<path d="M307.03 449.3V510.42C307.044 520.404 303.682 530.099 297.49 537.93C296.432 539.266 295.3 540.541 294.1 541.75C289.97 545.898 285.061 549.19 279.655 551.436C274.25 553.682 268.454 554.838 262.6 554.838C256.746 554.838 250.95 553.682 245.544 551.436C240.139 549.19 235.23 545.898 231.1 541.75C229.9 540.541 228.768 539.266 227.71 537.93C221.496 530.107 218.113 520.411 218.11 510.42V449.3C218.089 438.914 221.725 428.853 228.38 420.88C229.561 419.465 230.834 418.129 232.19 416.88C240.421 409.163 251.282 404.868 262.565 404.868C273.848 404.868 284.709 409.163 292.94 416.88C293.3 417.2 293.65 417.55 294 417.88C295 418.88 295.87 419.88 296.75 420.88C303.409 428.852 307.048 438.913 307.03 449.3V449.3Z" fill="#DFE6F5"/>
<path opacity="0.1" d="M243.12 421.52C244.655 421.52 245.9 420.275 245.9 418.74C245.9 417.205 244.655 415.96 243.12 415.96C241.584 415.96 240.34 417.205 240.34 418.74C240.34 420.275 241.584 421.52 243.12 421.52Z" fill="black"/>
<path opacity="0.1" d="M243.12 430.78C244.655 430.78 245.9 429.535 245.9 428C245.9 426.465 244.655 425.22 243.12 425.22C241.584 425.22 240.34 426.465 240.34 428C240.34 429.535 241.584 430.78 243.12 430.78Z" fill="black"/>
<path opacity="0.1" d="M243.12 440.04C244.655 440.04 245.9 438.795 245.9 437.26C245.9 435.725 244.655 434.48 243.12 434.48C241.584 434.48 240.34 435.725 240.34 437.26C240.34 438.795 241.584 440.04 243.12 440.04Z" fill="black"/>
<path opacity="0.1" d="M243.12 449.3C244.655 449.3 245.9 448.055 245.9 446.52C245.9 444.985 244.655 443.74 243.12 443.74C241.584 443.74 240.34 444.985 240.34 446.52C240.34 448.055 241.584 449.3 243.12 449.3Z" fill="black"/>
<path opacity="0.1" d="M243.12 458.56C244.655 458.56 245.9 457.315 245.9 455.78C245.9 454.245 244.655 453 243.12 453C241.584 453 240.34 454.245 240.34 455.78C240.34 457.315 241.584 458.56 243.12 458.56Z" fill="black"/>
<path opacity="0.1" d="M243.12 467.82C244.655 467.82 245.9 466.575 245.9 465.04C245.9 463.505 244.655 462.26 243.12 462.26C241.584 462.26 240.34 463.505 240.34 465.04C240.34 466.575 241.584 467.82 243.12 467.82Z" fill="black"/>
<path opacity="0.1" d="M243.12 477.08C244.655 477.08 245.9 475.835 245.9 474.3C245.9 472.765 244.655 471.52 243.12 471.52C241.584 471.52 240.34 472.765 240.34 474.3C240.34 475.835 241.584 477.08 243.12 477.08Z" fill="black"/>
<path opacity="0.1" d="M243.12 486.35C244.655 486.35 245.9 485.105 245.9 483.57C245.9 482.035 244.655 480.79 243.12 480.79C241.584 480.79 240.34 482.035 240.34 483.57C240.34 485.105 241.584 486.35 243.12 486.35Z" fill="black"/>
<path opacity="0.1" d="M243.12 495.61C244.655 495.61 245.9 494.365 245.9 492.83C245.9 491.295 244.655 490.05 243.12 490.05C241.584 490.05 240.34 491.295 240.34 492.83C240.34 494.365 241.584 495.61 243.12 495.61Z" fill="black"/>
<path opacity="0.1" d="M243.12 504.87C244.655 504.87 245.9 503.625 245.9 502.09C245.9 500.555 244.655 499.31 243.12 499.31C241.584 499.31 240.34 500.555 240.34 502.09C240.34 503.625 241.584 504.87 243.12 504.87Z" fill="black"/>
<path opacity="0.1" d="M243.12 514.13C244.655 514.13 245.9 512.885 245.9 511.35C245.9 509.815 244.655 508.57 243.12 508.57C241.584 508.57 240.34 509.815 240.34 511.35C240.34 512.885 241.584 514.13 243.12 514.13Z" fill="black"/>
<path opacity="0.1" d="M243.12 523.39C244.655 523.39 245.9 522.145 245.9 520.61C245.9 519.075 244.655 517.83 243.12 517.83C241.584 517.83 240.34 519.075 240.34 520.61C240.34 522.145 241.584 523.39 243.12 523.39Z" fill="black"/>
<path opacity="0.1" d="M243.12 532.65C244.655 532.65 245.9 531.405 245.9 529.87C245.9 528.335 244.655 527.09 243.12 527.09C241.584 527.09 240.34 528.335 240.34 529.87C240.34 531.405 241.584 532.65 243.12 532.65Z" fill="black"/>
<path opacity="0.1" d="M243.12 541.91C244.655 541.91 245.9 540.665 245.9 539.13C245.9 537.595 244.655 536.35 243.12 536.35C241.584 536.35 240.34 537.595 240.34 539.13C240.34 540.665 241.584 541.91 243.12 541.91Z" fill="black"/>
<path opacity="0.1" d="M232.94 418.74C232.939 419.267 232.789 419.783 232.506 420.228C232.224 420.672 231.82 421.028 231.343 421.252C230.866 421.476 230.336 421.56 229.813 421.495C229.29 421.429 228.797 421.216 228.39 420.88C229.571 419.465 230.844 418.129 232.2 416.88C232.674 417.383 232.939 418.048 232.94 418.74V418.74Z" fill="black"/>
<path opacity="0.1" d="M230.16 430.78C231.695 430.78 232.94 429.535 232.94 428C232.94 426.465 231.695 425.22 230.16 425.22C228.625 425.22 227.38 426.465 227.38 428C227.38 429.535 228.625 430.78 230.16 430.78Z" fill="black"/>
<path opacity="0.1" d="M230.16 440.04C231.695 440.04 232.94 438.795 232.94 437.26C232.94 435.725 231.695 434.48 230.16 434.48C228.625 434.48 227.38 435.725 227.38 437.26C227.38 438.795 228.625 440.04 230.16 440.04Z" fill="black"/>
<path opacity="0.1" d="M230.16 449.3C231.695 449.3 232.94 448.055 232.94 446.52C232.94 444.985 231.695 443.74 230.16 443.74C228.625 443.74 227.38 444.985 227.38 446.52C227.38 448.055 228.625 449.3 230.16 449.3Z" fill="black"/>
<path opacity="0.1" d="M230.16 458.56C231.695 458.56 232.94 457.315 232.94 455.78C232.94 454.245 231.695 453 230.16 453C228.625 453 227.38 454.245 227.38 455.78C227.38 457.315 228.625 458.56 230.16 458.56Z" fill="black"/>
<path opacity="0.1" d="M230.16 467.82C231.695 467.82 232.94 466.575 232.94 465.04C232.94 463.505 231.695 462.26 230.16 462.26C228.625 462.26 227.38 463.505 227.38 465.04C227.38 466.575 228.625 467.82 230.16 467.82Z" fill="black"/>
<path opacity="0.1" d="M230.16 477.08C231.695 477.08 232.94 475.835 232.94 474.3C232.94 472.765 231.695 471.52 230.16 471.52C228.625 471.52 227.38 472.765 227.38 474.3C227.38 475.835 228.625 477.08 230.16 477.08Z" fill="black"/>
<path opacity="0.1" d="M230.16 486.35C231.695 486.35 232.94 485.105 232.94 483.57C232.94 482.035 231.695 480.79 230.16 480.79C228.625 480.79 227.38 482.035 227.38 483.57C227.38 485.105 228.625 486.35 230.16 486.35Z" fill="black"/>
<path opacity="0.1" d="M230.16 495.61C231.695 495.61 232.94 494.365 232.94 492.83C232.94 491.295 231.695 490.05 230.16 490.05C228.625 490.05 227.38 491.295 227.38 492.83C227.38 494.365 228.625 495.61 230.16 495.61Z" fill="black"/>
<path opacity="0.1" d="M230.16 504.87C231.695 504.87 232.94 503.625 232.94 502.09C232.94 500.555 231.695 499.31 230.16 499.31C228.625 499.31 227.38 500.555 227.38 502.09C227.38 503.625 228.625 504.87 230.16 504.87Z" fill="black"/>
<path opacity="0.1" d="M230.16 514.13C231.695 514.13 232.94 512.885 232.94 511.35C232.94 509.815 231.695 508.57 230.16 508.57C228.625 508.57 227.38 509.815 227.38 511.35C227.38 512.885 228.625 514.13 230.16 514.13Z" fill="black"/>
<path opacity="0.1" d="M230.16 523.39C231.695 523.39 232.94 522.145 232.94 520.61C232.94 519.075 231.695 517.83 230.16 517.83C228.625 517.83 227.38 519.075 227.38 520.61C227.38 522.145 228.625 523.39 230.16 523.39Z" fill="black"/>
<path opacity="0.1" d="M230.16 532.65C231.695 532.65 232.94 531.405 232.94 529.87C232.94 528.335 231.695 527.09 230.16 527.09C228.625 527.09 227.38 528.335 227.38 529.87C227.38 531.405 228.625 532.65 230.16 532.65Z" fill="black"/>
<path opacity="0.1" d="M232.94 539.13C232.941 539.711 232.759 540.278 232.42 540.75C232.08 541.222 231.601 541.575 231.05 541.76C229.85 540.551 228.718 539.276 227.66 537.94C227.927 537.367 228.383 536.903 228.95 536.625C229.517 536.346 230.163 536.27 230.779 536.409C231.396 536.548 231.946 536.894 232.339 537.389C232.732 537.884 232.944 538.498 232.94 539.13V539.13Z" fill="black"/>
<path opacity="0.1" d="M256.09 421.52C257.625 421.52 258.87 420.275 258.87 418.74C258.87 417.205 257.625 415.96 256.09 415.96C254.555 415.96 253.31 417.205 253.31 418.74C253.31 420.275 254.555 421.52 256.09 421.52Z" fill="black"/>
<path opacity="0.1" d="M256.09 430.78C257.625 430.78 258.87 429.535 258.87 428C258.87 426.465 257.625 425.22 256.09 425.22C254.555 425.22 253.31 426.465 253.31 428C253.31 429.535 254.555 430.78 256.09 430.78Z" fill="black"/>
<path opacity="0.1" d="M256.09 440.04C257.625 440.04 258.87 438.795 258.87 437.26C258.87 435.725 257.625 434.48 256.09 434.48C254.555 434.48 253.31 435.725 253.31 437.26C253.31 438.795 254.555 440.04 256.09 440.04Z" fill="black"/>
<path opacity="0.1" d="M256.09 449.3C257.625 449.3 258.87 448.055 258.87 446.52C258.87 444.985 257.625 443.74 256.09 443.74C254.555 443.74 253.31 444.985 253.31 446.52C253.31 448.055 254.555 449.3 256.09 449.3Z" fill="black"/>
<path opacity="0.1" d="M256.09 458.56C257.625 458.56 258.87 457.315 258.87 455.78C258.87 454.245 257.625 453 256.09 453C254.555 453 253.31 454.245 253.31 455.78C253.31 457.315 254.555 458.56 256.09 458.56Z" fill="black"/>
<path opacity="0.1" d="M256.09 467.82C257.625 467.82 258.87 466.575 258.87 465.04C258.87 463.505 257.625 462.26 256.09 462.26C254.555 462.26 253.31 463.505 253.31 465.04C253.31 466.575 254.555 467.82 256.09 467.82Z" fill="black"/>
<path opacity="0.1" d="M256.09 477.08C257.625 477.08 258.87 475.835 258.87 474.3C258.87 472.765 257.625 471.52 256.09 471.52C254.555 471.52 253.31 472.765 253.31 474.3C253.31 475.835 254.555 477.08 256.09 477.08Z" fill="black"/>
<path opacity="0.1" d="M256.09 486.35C257.625 486.35 258.87 485.105 258.87 483.57C258.87 482.035 257.625 480.79 256.09 480.79C254.555 480.79 253.31 482.035 253.31 483.57C253.31 485.105 254.555 486.35 256.09 486.35Z" fill="black"/>
<path opacity="0.1" d="M256.09 495.61C257.625 495.61 258.87 494.365 258.87 492.83C258.87 491.295 257.625 490.05 256.09 490.05C254.555 490.05 253.31 491.295 253.31 492.83C253.31 494.365 254.555 495.61 256.09 495.61Z" fill="black"/>
<path opacity="0.1" d="M256.09 504.87C257.625 504.87 258.87 503.625 258.87 502.09C258.87 500.555 257.625 499.31 256.09 499.31C254.555 499.31 253.31 500.555 253.31 502.09C253.31 503.625 254.555 504.87 256.09 504.87Z" fill="black"/>
<path opacity="0.1" d="M256.09 514.13C257.625 514.13 258.87 512.885 258.87 511.35C258.87 509.815 257.625 508.57 256.09 508.57C254.555 508.57 253.31 509.815 253.31 511.35C253.31 512.885 254.555 514.13 256.09 514.13Z" fill="black"/>
<path opacity="0.1" d="M256.09 523.39C257.625 523.39 258.87 522.145 258.87 520.61C258.87 519.075 257.625 517.83 256.09 517.83C254.555 517.83 253.31 519.075 253.31 520.61C253.31 522.145 254.555 523.39 256.09 523.39Z" fill="black"/>
<path opacity="0.1" d="M256.09 532.65C257.625 532.65 258.87 531.405 258.87 529.87C258.87 528.335 257.625 527.09 256.09 527.09C254.555 527.09 253.31 528.335 253.31 529.87C253.31 531.405 254.555 532.65 256.09 532.65Z" fill="black"/>
<path opacity="0.1" d="M256.09 541.91C257.625 541.91 258.87 540.665 258.87 539.13C258.87 537.595 257.625 536.35 256.09 536.35C254.555 536.35 253.31 537.595 253.31 539.13C253.31 540.665 254.555 541.91 256.09 541.91Z" fill="black"/>
<path opacity="0.1" d="M269.05 421.52C270.585 421.52 271.83 420.275 271.83 418.74C271.83 417.205 270.585 415.96 269.05 415.96C267.515 415.96 266.27 417.205 266.27 418.74C266.27 420.275 267.515 421.52 269.05 421.52Z" fill="black"/>
<path opacity="0.1" d="M269.05 430.78C270.585 430.78 271.83 429.535 271.83 428C271.83 426.465 270.585 425.22 269.05 425.22C267.515 425.22 266.27 426.465 266.27 428C266.27 429.535 267.515 430.78 269.05 430.78Z" fill="black"/>
<path opacity="0.1" d="M269.05 440.04C270.585 440.04 271.83 438.795 271.83 437.26C271.83 435.725 270.585 434.48 269.05 434.48C267.515 434.48 266.27 435.725 266.27 437.26C266.27 438.795 267.515 440.04 269.05 440.04Z" fill="black"/>
<path opacity="0.1" d="M269.05 449.3C270.585 449.3 271.83 448.055 271.83 446.52C271.83 444.985 270.585 443.74 269.05 443.74C267.515 443.74 266.27 444.985 266.27 446.52C266.27 448.055 267.515 449.3 269.05 449.3Z" fill="black"/>
<path opacity="0.1" d="M269.05 458.56C270.585 458.56 271.83 457.315 271.83 455.78C271.83 454.245 270.585 453 269.05 453C267.515 453 266.27 454.245 266.27 455.78C266.27 457.315 267.515 458.56 269.05 458.56Z" fill="black"/>
<path opacity="0.1" d="M269.05 467.82C270.585 467.82 271.83 466.575 271.83 465.04C271.83 463.505 270.585 462.26 269.05 462.26C267.515 462.26 266.27 463.505 266.27 465.04C266.27 466.575 267.515 467.82 269.05 467.82Z" fill="black"/>
<path opacity="0.1" d="M269.05 477.08C270.585 477.08 271.83 475.835 271.83 474.3C271.83 472.765 270.585 471.52 269.05 471.52C267.515 471.52 266.27 472.765 266.27 474.3C266.27 475.835 267.515 477.08 269.05 477.08Z" fill="black"/>
<path opacity="0.1" d="M269.05 486.35C270.585 486.35 271.83 485.105 271.83 483.57C271.83 482.035 270.585 480.79 269.05 480.79C267.515 480.79 266.27 482.035 266.27 483.57C266.27 485.105 267.515 486.35 269.05 486.35Z" fill="black"/>
<path opacity="0.1" d="M269.05 495.61C270.585 495.61 271.83 494.365 271.83 492.83C271.83 491.295 270.585 490.05 269.05 490.05C267.515 490.05 266.27 491.295 266.27 492.83C266.27 494.365 267.515 495.61 269.05 495.61Z" fill="black"/>
<path opacity="0.1" d="M269.05 504.87C270.585 504.87 271.83 503.625 271.83 502.09C271.83 500.555 270.585 499.31 269.05 499.31C267.515 499.31 266.27 500.555 266.27 502.09C266.27 503.625 267.515 504.87 269.05 504.87Z" fill="black"/>
<path opacity="0.1" d="M269.05 514.13C270.585 514.13 271.83 512.885 271.83 511.35C271.83 509.815 270.585 508.57 269.05 508.57C267.515 508.57 266.27 509.815 266.27 511.35C266.27 512.885 267.515 514.13 269.05 514.13Z" fill="black"/>
<path opacity="0.1" d="M269.05 523.39C270.585 523.39 271.83 522.145 271.83 520.61C271.83 519.075 270.585 517.83 269.05 517.83C267.515 517.83 266.27 519.075 266.27 520.61C266.27 522.145 267.515 523.39 269.05 523.39Z" fill="black"/>
<path opacity="0.1" d="M269.05 532.65C270.585 532.65 271.83 531.405 271.83 529.87C271.83 528.335 270.585 527.09 269.05 527.09C267.515 527.09 266.27 528.335 266.27 529.87C266.27 531.405 267.515 532.65 269.05 532.65Z" fill="black"/>
<path opacity="0.1" d="M269.05 541.91C270.585 541.91 271.83 540.665 271.83 539.13C271.83 537.595 270.585 536.35 269.05 536.35C267.515 536.35 266.27 537.595 266.27 539.13C266.27 540.665 267.515 541.91 269.05 541.91Z" fill="black"/>
<path opacity="0.1" d="M282.02 421.52C283.556 421.52 284.8 420.275 284.8 418.74C284.8 417.205 283.556 415.96 282.02 415.96C280.485 415.96 279.24 417.205 279.24 418.74C279.24 420.275 280.485 421.52 282.02 421.52Z" fill="black"/>
<path opacity="0.1" d="M282.02 430.78C283.556 430.78 284.8 429.535 284.8 428C284.8 426.465 283.556 425.22 282.02 425.22C280.485 425.22 279.24 426.465 279.24 428C279.24 429.535 280.485 430.78 282.02 430.78Z" fill="black"/>
<path opacity="0.1" d="M282.02 440.04C283.556 440.04 284.8 438.795 284.8 437.26C284.8 435.725 283.556 434.48 282.02 434.48C280.485 434.48 279.24 435.725 279.24 437.26C279.24 438.795 280.485 440.04 282.02 440.04Z" fill="black"/>
<path opacity="0.1" d="M282.02 449.3C283.556 449.3 284.8 448.055 284.8 446.52C284.8 444.985 283.556 443.74 282.02 443.74C280.485 443.74 279.24 444.985 279.24 446.52C279.24 448.055 280.485 449.3 282.02 449.3Z" fill="black"/>
<path opacity="0.1" d="M282.02 458.56C283.556 458.56 284.8 457.315 284.8 455.78C284.8 454.245 283.556 453 282.02 453C280.485 453 279.24 454.245 279.24 455.78C279.24 457.315 280.485 458.56 282.02 458.56Z" fill="black"/>
<path opacity="0.1" d="M282.02 467.82C283.556 467.82 284.8 466.575 284.8 465.04C284.8 463.505 283.556 462.26 282.02 462.26C280.485 462.26 279.24 463.505 279.24 465.04C279.24 466.575 280.485 467.82 282.02 467.82Z" fill="black"/>
<path opacity="0.1" d="M282.02 477.08C283.556 477.08 284.8 475.835 284.8 474.3C284.8 472.765 283.556 471.52 282.02 471.52C280.485 471.52 279.24 472.765 279.24 474.3C279.24 475.835 280.485 477.08 282.02 477.08Z" fill="black"/>
<path opacity="0.1" d="M282.02 486.35C283.556 486.35 284.8 485.105 284.8 483.57C284.8 482.035 283.556 480.79 282.02 480.79C280.485 480.79 279.24 482.035 279.24 483.57C279.24 485.105 280.485 486.35 282.02 486.35Z" fill="black"/>
<path opacity="0.1" d="M282.02 495.61C283.556 495.61 284.8 494.365 284.8 492.83C284.8 491.295 283.556 490.05 282.02 490.05C280.485 490.05 279.24 491.295 279.24 492.83C279.24 494.365 280.485 495.61 282.02 495.61Z" fill="black"/>
<path opacity="0.1" d="M282.02 504.87C283.556 504.87 284.8 503.625 284.8 502.09C284.8 500.555 283.556 499.31 282.02 499.31C280.485 499.31 279.24 500.555 279.24 502.09C279.24 503.625 280.485 504.87 282.02 504.87Z" fill="black"/>
<path opacity="0.1" d="M282.02 514.13C283.556 514.13 284.8 512.885 284.8 511.35C284.8 509.815 283.556 508.57 282.02 508.57C280.485 508.57 279.24 509.815 279.24 511.35C279.24 512.885 280.485 514.13 282.02 514.13Z" fill="black"/>
<path opacity="0.1" d="M282.02 523.39C283.556 523.39 284.8 522.145 284.8 520.61C284.8 519.075 283.556 517.83 282.02 517.83C280.485 517.83 279.24 519.075 279.24 520.61C279.24 522.145 280.485 523.39 282.02 523.39Z" fill="black"/>
<path opacity="0.1" d="M282.02 532.65C283.556 532.65 284.8 531.405 284.8 529.87C284.8 528.335 283.556 527.09 282.02 527.09C280.485 527.09 279.24 528.335 279.24 529.87C279.24 531.405 280.485 532.65 282.02 532.65Z" fill="black"/>
<path opacity="0.1" d="M282.02 541.91C283.556 541.91 284.8 540.665 284.8 539.13C284.8 537.595 283.556 536.35 282.02 536.35C280.485 536.35 279.24 537.595 279.24 539.13C279.24 540.665 280.485 541.91 282.02 541.91Z" fill="black"/>
<path opacity="0.1" d="M296.76 420.88C296.354 421.216 295.86 421.429 295.337 421.495C294.815 421.56 294.284 421.476 293.807 421.252C293.33 421.028 292.927 420.672 292.644 420.228C292.361 419.783 292.211 419.267 292.21 418.74C292.206 418.042 292.471 417.368 292.95 416.86C293.31 417.18 293.66 417.53 294.01 417.86C294.97 418.84 295.88 419.84 296.76 420.88Z" fill="black"/>
<path opacity="0.1" d="M294.98 430.78C296.516 430.78 297.76 429.535 297.76 428C297.76 426.465 296.516 425.22 294.98 425.22C293.445 425.22 292.2 426.465 292.2 428C292.2 429.535 293.445 430.78 294.98 430.78Z" fill="black"/>
<path opacity="0.1" d="M294.98 440.04C296.516 440.04 297.76 438.795 297.76 437.26C297.76 435.725 296.516 434.48 294.98 434.48C293.445 434.48 292.2 435.725 292.2 437.26C292.2 438.795 293.445 440.04 294.98 440.04Z" fill="black"/>
<path opacity="0.1" d="M294.98 449.3C296.516 449.3 297.76 448.055 297.76 446.52C297.76 444.985 296.516 443.74 294.98 443.74C293.445 443.74 292.2 444.985 292.2 446.52C292.2 448.055 293.445 449.3 294.98 449.3Z" fill="black"/>
<path opacity="0.1" d="M294.98 458.56C296.516 458.56 297.76 457.315 297.76 455.78C297.76 454.245 296.516 453 294.98 453C293.445 453 292.2 454.245 292.2 455.78C292.2 457.315 293.445 458.56 294.98 458.56Z" fill="black"/>
<path opacity="0.1" d="M294.98 467.82C296.516 467.82 297.76 466.575 297.76 465.04C297.76 463.505 296.516 462.26 294.98 462.26C293.445 462.26 292.2 463.505 292.2 465.04C292.2 466.575 293.445 467.82 294.98 467.82Z" fill="black"/>
<path opacity="0.1" d="M294.98 477.08C296.516 477.08 297.76 475.835 297.76 474.3C297.76 472.765 296.516 471.52 294.98 471.52C293.445 471.52 292.2 472.765 292.2 474.3C292.2 475.835 293.445 477.08 294.98 477.08Z" fill="black"/>
<path opacity="0.1" d="M294.98 486.35C296.516 486.35 297.76 485.105 297.76 483.57C297.76 482.035 296.516 480.79 294.98 480.79C293.445 480.79 292.2 482.035 292.2 483.57C292.2 485.105 293.445 486.35 294.98 486.35Z" fill="black"/>
<path opacity="0.1" d="M294.98 495.61C296.516 495.61 297.76 494.365 297.76 492.83C297.76 491.295 296.516 490.05 294.98 490.05C293.445 490.05 292.2 491.295 292.2 492.83C292.2 494.365 293.445 495.61 294.98 495.61Z" fill="black"/>
<path opacity="0.1" d="M294.98 504.87C296.516 504.87 297.76 503.625 297.76 502.09C297.76 500.555 296.516 499.31 294.98 499.31C293.445 499.31 292.2 500.555 292.2 502.09C292.2 503.625 293.445 504.87 294.98 504.87Z" fill="black"/>
<path opacity="0.1" d="M294.98 514.13C296.516 514.13 297.76 512.885 297.76 511.35C297.76 509.815 296.516 508.57 294.98 508.57C293.445 508.57 292.2 509.815 292.2 511.35C292.2 512.885 293.445 514.13 294.98 514.13Z" fill="black"/>
<path opacity="0.1" d="M294.98 523.39C296.516 523.39 297.76 522.145 297.76 520.61C297.76 519.075 296.516 517.83 294.98 517.83C293.445 517.83 292.2 519.075 292.2 520.61C292.2 522.145 293.445 523.39 294.98 523.39Z" fill="black"/>
<path opacity="0.1" d="M294.98 532.65C296.516 532.65 297.76 531.405 297.76 529.87C297.76 528.335 296.516 527.09 294.98 527.09C293.445 527.09 292.2 528.335 292.2 529.87C292.2 531.405 293.445 532.65 294.98 532.65Z" fill="black"/>
<path opacity="0.1" d="M297.49 537.93C296.432 539.266 295.301 540.541 294.1 541.75C293.663 541.605 293.269 541.354 292.953 541.02C292.636 540.685 292.408 540.277 292.289 539.833C292.169 539.388 292.162 538.921 292.268 538.473C292.373 538.025 292.588 537.61 292.894 537.265C293.2 536.921 293.586 536.658 294.018 536.5C294.451 536.342 294.916 536.293 295.371 536.359C295.827 536.425 296.259 536.603 296.629 536.877C296.999 537.151 297.295 537.513 297.49 537.93V537.93Z" fill="black"/>
<path d="M261.8 505.79H259.64C256.658 505.79 254.24 508.208 254.24 511.19V624.48C254.24 627.462 256.658 629.88 259.64 629.88H261.8C264.783 629.88 267.2 627.462 267.2 624.48V511.19C267.2 508.208 264.783 505.79 261.8 505.79Z" fill="#54576B"/>
<path d="M298.22 613.21H223.22C219.382 613.21 216.27 616.322 216.27 620.16V622.93C216.27 626.768 219.382 629.88 223.22 629.88H298.22C302.058 629.88 305.17 626.768 305.17 622.93V620.16C305.17 616.322 302.058 613.21 298.22 613.21Z" fill="#54576B"/>
<path opacity="0.1" d="M261.8 505.79H259.64C256.658 505.79 254.24 508.208 254.24 511.19V624.48C254.24 627.462 256.658 629.88 259.64 629.88H261.8C264.783 629.88 267.2 627.462 267.2 624.48V511.19C267.2 508.208 264.783 505.79 261.8 505.79Z" fill="black"/>
<path opacity="0.1" d="M298.22 613.21H223.22C219.382 613.21 216.27 616.322 216.27 620.16V622.93C216.27 626.768 219.382 629.88 223.22 629.88H298.22C302.058 629.88 305.17 626.768 305.17 622.93V620.16C305.17 616.322 302.058 613.21 298.22 613.21Z" fill="black"/>
<path d="M263.65 505.79H261.49C258.507 505.79 256.09 508.208 256.09 511.19V624.48C256.09 627.462 258.507 629.88 261.49 629.88H263.65C266.632 629.88 269.05 627.462 269.05 624.48V511.19C269.05 508.208 266.632 505.79 263.65 505.79Z" fill="#54576B"/>
<path d="M300.07 613.21H225.07C221.232 613.21 218.12 616.322 218.12 620.16V622.93C218.12 626.768 221.232 629.88 225.07 629.88H300.07C303.909 629.88 307.02 626.768 307.02 622.93V620.16C307.02 616.322 303.909 613.21 300.07 613.21Z" fill="#54576B"/>
<path d="M339.77 516.29C332.82 531.412 321.678 544.222 307.667 553.203C293.656 562.183 277.362 566.957 260.72 566.957C244.078 566.957 227.785 562.183 213.773 553.203C199.762 544.222 188.62 531.412 181.67 516.29C172.46 503.08 164.41 476.74 164.41 479.87C164.41 492.518 166.901 505.041 171.741 516.726C176.581 528.411 183.675 539.028 192.619 547.971C201.562 556.915 212.179 564.009 223.864 568.849C235.549 573.689 248.073 576.18 260.72 576.18C273.368 576.18 285.892 573.689 297.576 568.849C309.261 564.009 319.878 556.915 328.822 547.971C337.765 539.028 344.859 528.411 349.699 516.726C354.539 505.041 357.03 492.518 357.03 479.87C357.03 476.74 348.98 503.08 339.77 516.29Z" fill="#54576B"/>
<path d="M260.72 383.55C245.184 383.554 229.88 387.318 216.115 394.52C202.349 401.722 190.531 412.149 181.67 424.91C176.388 436.324 173.658 448.753 173.67 461.33C173.67 464.423 173.833 467.514 174.16 470.59C176.337 449.148 186.395 429.277 202.386 414.828C218.377 400.378 239.163 392.378 260.715 392.378C282.267 392.378 303.052 400.378 319.043 414.828C335.034 429.277 345.093 449.148 347.27 470.59C347.597 467.514 347.76 464.423 347.76 461.33C347.772 448.753 345.042 436.324 339.76 424.91C330.9 412.151 319.083 401.725 305.32 394.522C291.556 387.32 276.254 383.556 260.72 383.55V383.55Z" fill="#54576B"/>
<path opacity="0.1" d="M262.57 521.53C264.614 521.53 266.27 519.873 266.27 517.83C266.27 515.787 264.614 514.13 262.57 514.13C260.527 514.13 258.87 515.787 258.87 517.83C258.87 519.873 260.527 521.53 262.57 521.53Z" fill="black"/>
<path opacity="0.2" d="M436.2 609.51C436.968 609.51 437.59 608.888 437.59 608.12C437.59 607.352 436.968 606.73 436.2 606.73C435.432 606.73 434.81 607.352 434.81 608.12C434.81 608.888 435.432 609.51 436.2 609.51Z" fill="black"/>
<path d="M383.76 636.08C378.232 636.115 372.766 634.916 367.76 632.57C349.1 623.79 339.9 624.9 325.98 626.57C312.935 628.368 299.741 628.847 286.6 628C282.935 627.83 279.355 626.844 276.12 625.114C272.884 623.384 270.076 620.953 267.9 618C247.26 591.2 261.07 520.64 261.67 517.65C261.732 517.423 261.877 517.228 262.077 517.104C262.277 516.981 262.517 516.937 262.747 516.983C262.978 517.028 263.183 517.16 263.321 517.35C263.459 517.541 263.519 517.777 263.49 518.01C263.35 518.73 249.24 590.73 269.37 616.86C271.386 619.606 273.99 621.867 276.992 623.478C279.993 625.089 283.317 626.008 286.72 626.17C299.735 627.005 312.801 626.526 325.72 624.74C339.96 623.02 349.37 621.88 368.51 630.89C399.04 645.26 434.82 608.71 435.17 608.34C435.346 608.188 435.572 608.107 435.805 608.114C436.037 608.121 436.259 608.214 436.426 608.376C436.593 608.538 436.693 608.756 436.706 608.989C436.72 609.221 436.647 609.45 436.5 609.63C436.23 609.95 410.64 636.08 383.76 636.08Z" fill="#DFE6F5"/>
<path d="M417.78 144.31C402.49 116.76 371.45 97.8699 335.78 97.8699C284.98 97.8699 243.64 136.09 243.64 183.07H237.11C237.11 132.52 281.36 91.3899 335.73 91.3899C367.21 91.3899 395.29 105.17 413.36 126.59C414.84 131.39 415.97 136.3 417.09 141.2C417.34 142.25 417.57 143.28 417.78 144.31Z" fill="#535461"/>
<path d="M250.89 156H259.42V215H250.89C244.376 215 238.129 212.412 233.524 207.807C228.918 203.201 226.33 196.954 226.33 190.44V180.62C226.322 177.39 226.952 174.19 228.182 171.203C229.413 168.216 231.221 165.502 233.502 163.215C235.784 160.928 238.494 159.113 241.478 157.875C244.461 156.637 247.66 156 250.89 156V156Z" fill="#DFE6F5"/>
<path d="M260.63 156.05H258.21C254.88 156.05 252.18 158.75 252.18 162.08V208.97C252.18 212.3 254.88 215 258.21 215H260.63C263.96 215 266.66 212.3 266.66 208.97V162.08C266.66 158.75 263.96 156.05 260.63 156.05Z" fill="#535461"/>
<path d="M801.83 579.91C801.83 579.91 785.95 574.53 778.31 588.52C776.294 592.313 775.269 596.554 775.328 600.849C775.388 605.144 776.53 609.354 778.65 613.09C783.65 622.16 794.01 633.94 813.65 632.89C830.27 632 835.8 619.32 837.3 607.52C837.875 603.096 837.305 598.598 835.643 594.457C833.982 590.317 831.286 586.672 827.813 583.872C824.339 581.072 820.205 579.211 815.806 578.466C811.408 577.722 806.891 578.119 802.69 579.62L801.83 579.91Z" fill="#6C63FF"/>
<path opacity="0.1" d="M782.01 614.35C779.89 610.614 778.748 606.404 778.688 602.109C778.629 597.814 779.654 593.573 781.67 589.78C789.31 575.78 805.19 581.17 805.19 581.17L806 580.88C812.055 578.689 818.71 578.839 824.66 581.3C821.376 579.345 817.7 578.142 813.896 577.779C810.092 577.416 806.254 577.901 802.66 579.2L801.85 579.49C801.85 579.49 785.97 574.11 778.33 588.1C776.314 591.893 775.289 596.134 775.348 600.429C775.408 604.724 776.55 608.934 778.67 612.67C781.98 618.67 787.59 625.78 796.67 629.67C790.474 626.001 785.403 620.702 782.01 614.35V614.35Z" fill="white"/>
<path opacity="0.2" d="M793.63 586.64C793.63 586.64 799.52 591.27 813.81 586.64Z" fill="black"/>
<path d="M792.37 553C792.37 553 802.46 580.33 801.62 587.48L809.62 586.64C809.62 586.64 796.11 562.67 799.52 553H792.37Z" fill="#6C63FF"/>
<path opacity="0.2" d="M792.37 553C792.37 553 802.46 580.33 801.62 587.48L809.62 586.64C809.62 586.64 796.11 562.67 799.52 553H792.37Z" fill="black"/>
<path d="M833.56 555.28C833.56 555.28 817.68 547.16 810.56 553.87C803.44 560.58 802.36 577.73 802.36 577.73C802.36 577.73 828.27 581.3 833.56 555.28Z" fill="#6C63FF"/>
<path opacity="0.1" d="M833.56 555.28C833.56 555.28 817.68 547.16 810.56 553.87C803.44 560.58 802.36 577.73 802.36 577.73C802.36 577.73 828.27 581.3 833.56 555.28Z" fill="white"/>
<path d="M802.37 577.73C802.37 577.73 806.54 557.82 833.56 555.28" stroke="#6C63FF" stroke-miterlimit="10"/>
</g>
<defs>
<linearGradient id="paint0_linear_12:538" x1="593.64" y1="705.89" x2="593.64" y2="65.9701" gradientUnits="userSpaceOnUse">
<stop stop-color="#808080" stop-opacity="0.25"/>
<stop offset="0.54" stop-color="#808080" stop-opacity="0.12"/>
<stop offset="1" stop-color="#808080" stop-opacity="0.1"/>
</linearGradient>
<clipPath id="clip0_12:538">
<rect width="1140.21" height="776" fill="white"/>
</clipPath>
</defs>
</svg>
