<svg width="996" height="837" viewBox="0 0 996 837" fill="none" xmlns="http://www.w3.org/2000/svg">
<g clip-path="url(#clip0_13:869)">
<path d="M711.33 91.3773C626.344 90.9869 549.962 128.069 497.501 187.147C445.039 128.069 368.657 90.9869 283.672 91.3773C124.086 92.1105 -3.0993 223.488 0.0575174 384.163C3.11918 539.997 129.52 665.374 285.001 665.374C291.033 665.374 297.02 665.187 302.961 664.813C432.527 656.695 562.474 656.695 692.041 664.813C697.98 665.185 703.967 665.372 710.001 665.374C865.481 665.374 991.882 539.997 994.944 384.163C998.101 223.488 870.915 92.1105 711.33 91.3773Z" fill="#F2F2F2"/>
<path d="M657.381 7.45728C653.119 7.69806 649.007 9.1215 645.508 11.568C642.009 14.0145 639.261 17.3873 637.572 21.3083C632.618 33.2821 638.996 47.3471 648.57 56.0786C658.145 64.81 670.444 69.8008 681.619 76.3609C696.628 85.1722 710.116 97.4037 717.626 113.105C725.136 128.806 725.935 148.255 717.107 163.255C708.913 177.177 694.014 185.51 679.805 193.194" stroke="#3F3D56" stroke-miterlimit="10"/>
<path d="M670.001 17C679.666 17 687.501 13.1944 687.501 8.5C687.501 3.80558 679.666 0 670.001 0C660.336 0 652.501 3.80558 652.501 8.5C652.501 13.1944 660.336 17 670.001 17Z" fill="#57B894"/>
<path d="M684.001 73C693.666 73 701.501 69.1944 701.501 64.5C701.501 59.8056 693.666 56 684.001 56C674.336 56 666.501 59.8056 666.501 64.5C666.501 69.1944 674.336 73 684.001 73Z" fill="#57B894"/>
<path d="M652.001 82C661.666 82 669.501 78.1944 669.501 73.5C669.501 68.8056 661.666 65 652.001 65C642.336 65 634.501 68.8056 634.501 73.5C634.501 78.1944 642.336 82 652.001 82Z" fill="#57B894"/>
<path d="M702.001 129C711.666 129 719.501 125.194 719.501 120.5C719.501 115.806 711.666 112 702.001 112C692.336 112 684.501 115.806 684.501 120.5C684.501 125.194 692.336 129 702.001 129Z" fill="#57B894"/>
<path d="M737.001 129C746.666 129 754.501 125.194 754.501 120.5C754.501 115.806 746.666 112 737.001 112C727.336 112 719.501 115.806 719.501 120.5C719.501 125.194 727.336 129 737.001 129Z" fill="#57B894"/>
<path d="M749.861 286.247C745.936 284.569 741.62 284.017 737.398 284.653C733.177 285.29 729.216 287.09 725.96 289.852C716.201 298.377 715.664 313.811 720.361 325.888C725.058 337.965 733.858 347.902 740.954 358.744C750.484 373.308 757.131 390.259 756.881 407.662C756.631 425.065 748.704 442.843 734.13 452.357C720.602 461.188 703.553 462.031 687.408 462.601" stroke="#3F3D56" stroke-miterlimit="10"/>
<path d="M776.38 300.566C778.466 296.361 773.138 289.47 764.48 285.175C755.822 280.88 747.112 280.807 745.026 285.012C742.939 289.218 748.267 296.109 756.925 300.404C765.584 304.699 774.294 304.772 776.38 300.566Z" fill="#57B894"/>
<path d="M764.035 356.954C766.121 352.749 760.794 345.858 752.136 341.563C743.477 337.268 734.767 337.195 732.681 341.401C730.595 345.606 735.923 352.497 744.581 356.792C753.239 361.087 761.949 361.16 764.035 356.954Z" fill="#57B894"/>
<path d="M731.369 350.796C733.455 346.591 728.128 339.7 719.47 335.405C710.811 331.11 702.101 331.037 700.015 335.242C697.929 339.448 703.257 346.339 711.915 350.634C720.573 354.929 729.283 355.002 731.369 350.796Z" fill="#57B894"/>
<path d="M755.274 415.12C757.36 410.914 752.033 404.023 743.375 399.728C734.716 395.433 726.006 395.361 723.92 399.566C721.834 403.772 727.162 410.663 735.82 414.958C744.478 419.253 753.188 419.325 755.274 415.12Z" fill="#57B894"/>
<path d="M786.628 430.674C788.714 426.468 783.387 419.577 774.729 415.282C766.07 410.987 757.36 410.914 755.274 415.12C753.188 419.325 758.516 426.216 767.174 430.511C775.832 434.806 784.542 434.879 786.628 430.674Z" fill="#57B894"/>
<path d="M298.004 366.409C301.032 363.399 304.839 361.292 308.997 360.325C313.155 359.357 317.501 359.567 321.547 360.931C333.764 365.249 339.964 379.394 340.059 392.351C340.155 405.309 335.647 417.793 333.058 430.49C329.58 447.544 329.664 465.751 336.324 481.831C342.984 497.912 356.917 511.505 373.974 514.963C389.807 518.174 405.963 512.66 421.176 507.227" stroke="#3F3D56" stroke-miterlimit="10"/>
<path d="M296.668 382.174C303.127 374.984 305.533 366.613 302.041 363.475C298.549 360.338 290.482 363.622 284.022 370.812C277.563 378.001 275.157 386.372 278.649 389.51C282.141 392.647 290.208 389.363 296.668 382.174Z" fill="#57B894"/>
<path d="M328.966 430.016C335.425 422.826 337.831 414.455 334.339 411.317C330.847 408.18 322.78 411.464 316.321 418.653C309.861 425.843 307.455 434.214 310.947 437.352C314.439 440.489 322.506 437.205 328.966 430.016Z" fill="#57B894"/>
<path d="M357.048 412.228C363.507 405.039 365.913 396.667 362.421 393.53C358.93 390.392 350.862 393.677 344.403 400.866C337.943 408.055 335.537 416.427 339.029 419.564C342.521 422.702 350.588 419.417 357.048 412.228Z" fill="#57B894"/>
<path d="M358.591 480.833C365.05 473.643 367.456 465.272 363.964 462.134C360.472 458.997 352.405 462.281 345.945 469.471C339.486 476.66 337.08 485.031 340.572 488.169C344.064 491.306 352.131 488.022 358.591 480.833Z" fill="#57B894"/>
<path d="M335.198 506.867C341.658 499.678 344.063 491.306 340.572 488.169C337.08 485.031 329.012 488.316 322.553 495.505C316.093 502.694 313.687 511.066 317.179 514.203C320.671 517.341 328.738 514.056 335.198 506.867Z" fill="#57B894"/>
<path d="M700.481 250.96L697.731 271.13L680.731 395.59L652.891 599.41L645.921 650.44C645.39 654.335 643.465 657.907 640.503 660.492C637.541 663.077 633.742 664.501 629.811 664.5H444.161C440.236 664.501 436.442 663.082 433.481 660.506C430.52 657.929 428.592 654.368 428.051 650.48L420.961 599.41L392.651 395.59L375.351 271.04L372.571 251C372.25 248.698 372.426 246.354 373.088 244.126C373.75 241.898 374.882 239.837 376.408 238.084C377.934 236.331 379.818 234.925 381.934 233.962C384.049 232.998 386.346 232.5 388.671 232.5H684.371C686.692 232.501 688.985 232.999 691.098 233.959C693.21 234.92 695.093 236.322 696.619 238.071C698.145 239.819 699.279 241.874 699.945 244.097C700.611 246.32 700.794 248.66 700.481 250.96V250.96Z" fill="#6C63FF"/>
<path d="M665.741 178.5H408.261C399.281 178.5 392.001 185.78 392.001 194.76V216.24C392.001 225.22 399.281 232.5 408.261 232.5H665.741C674.721 232.5 682.001 225.22 682.001 216.24V194.76C682.001 185.78 674.721 178.5 665.741 178.5Z" fill="#2F2E41"/>
<path opacity="0.1" d="M682.001 204.02V216.24C682.001 220.552 680.288 224.688 677.238 227.738C674.189 230.787 670.053 232.5 665.741 232.5H408.261C403.948 232.5 399.813 230.787 396.763 227.738C393.714 224.688 392.001 220.552 392.001 216.24V204.05C488.449 213.24 585.554 213.23 682.001 204.02V204.02Z" fill="black"/>
<path d="M459.501 387C483.801 387 503.501 367.301 503.501 343C503.501 318.699 483.801 299 459.501 299C435.2 299 415.501 318.699 415.501 343C415.501 367.301 435.2 387 459.501 387Z" fill="#2F2E41"/>
<path d="M615.501 387C639.801 387 659.501 367.301 659.501 343C659.501 318.699 639.801 299 615.501 299C591.2 299 571.501 318.699 571.501 343C571.501 367.301 591.2 387 615.501 387Z" fill="#2F2E41"/>
<path d="M457.501 355C464.128 355 469.501 349.627 469.501 343C469.501 336.373 464.128 331 457.501 331C450.873 331 445.501 336.373 445.501 343C445.501 349.627 450.873 355 457.501 355Z" fill="white"/>
<path d="M475.501 325C478.262 325 480.501 322.761 480.501 320C480.501 317.239 478.262 315 475.501 315C472.739 315 470.501 317.239 470.501 320C470.501 322.761 472.739 325 475.501 325Z" fill="white"/>
<path d="M615.501 355C622.128 355 627.501 349.627 627.501 343C627.501 336.373 622.128 331 615.501 331C608.873 331 603.501 336.373 603.501 343C603.501 349.627 608.873 355 615.501 355Z" fill="white"/>
<path d="M633.501 325C636.262 325 638.501 322.761 638.501 320C638.501 317.239 636.262 315 633.501 315C630.739 315 628.501 317.239 628.501 320C628.501 322.761 630.739 325 633.501 325Z" fill="white"/>
<path opacity="0.1" d="M699.556 243H699.558C699.553 242.988 699.547 242.976 699.543 242.964C699.115 241.845 698.564 240.776 697.901 239.778L697.9 239.775C697.704 239.481 697.496 239.196 697.282 238.915C697.21 238.821 697.137 238.729 697.063 238.636C696.44 237.854 695.746 237.131 694.991 236.476C694.822 236.329 694.652 236.184 694.477 236.045C694.281 235.888 694.084 235.735 693.881 235.587C693.626 235.402 693.364 235.228 693.098 235.058C692.889 234.924 692.679 234.793 692.463 234.668C692.13 234.476 691.789 234.294 691.441 234.124C691.275 234.044 691.107 233.969 690.938 233.894C690.606 233.747 690.267 233.61 689.923 233.486C689.784 233.435 689.648 233.38 689.508 233.333C689.032 233.174 688.545 233.037 688.049 232.922C687.928 232.894 687.804 232.874 687.681 232.849C687.275 232.765 686.864 232.696 686.447 232.643C686.297 232.624 686.146 232.604 685.994 232.589C685.46 232.536 684.921 232.5 684.372 232.5L684.371 232.5H388.671C386.349 232.508 384.056 233.011 381.945 233.977C379.833 234.942 377.952 236.348 376.428 238.099C374.904 239.85 373.771 241.906 373.105 244.13C372.44 246.355 372.257 248.695 372.569 250.996L373.039 254.377L375.351 271.04L375.353 271.04L392.652 395.59H392.651L415.359 559.08L428.053 650.478C428.593 654.365 430.521 657.926 433.481 660.503C436.441 663.08 440.233 664.5 444.157 664.5H452.968C452.532 663.364 452.225 662.182 452.053 660.978L443.502 599.41H652.891L680.731 395.59H415.194L398.172 273.034C497.89 281.121 598.123 280.484 697.731 271.13L700.481 250.96C700.847 248.271 700.529 245.533 699.556 243Z" fill="black"/>
<path d="M723.742 259.5C599.616 273.049 474.385 273.049 350.26 259.5C345.948 259.5 341.812 257.787 338.763 254.738C335.714 251.689 334.001 247.553 334.001 243.241V221.759C334.001 217.447 335.714 213.311 338.763 210.262C341.812 207.213 345.948 205.5 350.26 205.5C474.287 220.749 599.715 220.749 723.742 205.5C728.054 205.5 732.189 207.213 735.239 210.262C738.288 213.311 740.001 217.447 740.001 221.759V243.241C740.001 247.553 738.288 251.689 735.239 254.738C732.189 257.787 728.054 259.5 723.742 259.5V259.5Z" fill="#2F2E41"/>
<path d="M660.535 592H410.55C408.306 592 406.135 591.199 404.428 589.742C402.722 588.285 401.591 586.267 401.239 584.05L374.232 413.906C374.018 412.559 374.099 411.183 374.469 409.871C374.838 408.559 375.488 407.343 376.373 406.306C377.258 405.269 378.357 404.437 379.595 403.866C380.833 403.296 382.18 403 383.543 403H689.343C690.714 403 692.069 403.299 693.312 403.877C694.556 404.454 695.659 405.296 696.544 406.343C697.429 407.391 698.075 408.618 698.437 409.941C698.798 411.264 698.867 412.649 698.638 414.001L669.831 584.146C669.459 586.342 668.321 588.336 666.62 589.774C664.918 591.211 662.763 592 660.535 592Z" fill="#2F2E41"/>
<path d="M632.09 470.721C633.268 470.936 634.367 471.466 635.27 472.253C636.173 473.041 636.847 474.057 637.221 475.195C637.595 476.334 637.655 477.552 637.395 478.721C637.135 479.891 636.564 480.969 635.743 481.841C619.882 498.748 581.424 534 536.501 534C491.577 534 453.12 498.748 437.259 481.841C436.437 480.969 435.867 479.891 435.606 478.721C435.346 477.552 435.406 476.334 435.78 475.195C436.154 474.057 436.828 473.041 437.731 472.253C438.634 471.466 439.733 470.936 440.912 470.721C504.107 459.093 568.894 459.093 632.089 470.721H632.09Z" fill="#6C63FF"/>
<path d="M586.499 481.264C587.716 481.458 588.856 481.987 589.792 482.79C590.727 483.594 591.421 484.641 591.796 485.816C592.172 486.99 592.214 488.246 591.918 489.443C591.622 490.64 590.999 491.731 590.12 492.596C579.379 503.068 559.388 518.86 536.501 518.86C513.613 518.86 493.622 503.068 482.881 492.596C482.002 491.731 481.38 490.64 481.084 489.443C480.788 488.246 480.83 486.99 481.205 485.816C481.58 484.641 482.274 483.594 483.21 482.79C484.145 481.987 485.285 481.458 486.502 481.264C519.608 475.766 553.393 475.766 586.499 481.264Z" fill="white"/>
<path d="M126.501 665H817.501" stroke="#3F3D56" stroke-miterlimit="10"/>
<path d="M183.653 572.445V600.575L198.098 617.302C198.098 617.302 204.18 615.021 204.18 599.815L206.461 577.767L183.653 572.445Z" fill="#A0616A"/>
<path d="M198.098 600.575C198.098 600.575 174.529 584.609 173.769 579.287C173.009 573.965 139.556 549.636 144.878 564.842C150.2 580.048 166.926 586.89 166.926 586.89C166.926 586.89 179.851 621.863 191.256 621.103C202.66 620.343 202.66 605.897 198.098 600.575Z" fill="#A0616A"/>
<path d="M211.783 771.64L214.064 785.325L201.899 782.284V771.64H211.783Z" fill="#3F3D56"/>
<path d="M209.502 779.243C209.502 779.243 195.443 770.913 194.87 774.698C194.297 778.483 188.214 792.928 185.173 794.449C182.132 795.969 178.331 812.696 185.173 811.935C190.473 811.347 209.911 801.18 218.407 796.625C219.453 796.062 220.243 795.118 220.614 793.99C220.986 792.861 220.91 791.633 220.404 790.558C219.905 789.637 219.561 788.639 219.386 787.606C219.386 786.086 209.502 779.243 209.502 779.243Z" fill="#2F2E41"/>
<path d="M216.345 624.905C216.345 624.905 160.844 650.754 166.166 670.522C171.488 690.289 191.255 773.921 191.255 773.921C191.255 773.921 213.304 779.243 214.824 773.921C216.345 768.599 200.379 685.728 201.899 682.687C203.42 679.645 231.551 659.878 231.551 659.878L289.333 635.549L265.003 612.74L216.345 624.905Z" fill="#2F2E41"/>
<path d="M174.529 776.202L167.686 793.689L179.851 799.011L187.454 785.325L174.529 776.202Z" fill="#3F3D56"/>
<path d="M215.585 500.217C215.585 500.217 222.427 509.341 217.105 513.902C211.783 518.464 215.585 535.191 215.585 535.191L222.427 554.198L249.798 548.876V517.704L248.277 502.498C248.277 502.498 234.592 489.573 233.071 479.689C231.551 469.806 215.585 500.217 215.585 500.217Z" fill="#A0616A"/>
<path opacity="0.1" d="M215.585 500.217C215.585 500.217 222.427 509.341 217.105 513.902C211.783 518.464 215.585 535.191 215.585 535.191L222.427 554.198L249.798 548.876V517.704L248.277 502.498C248.277 502.498 234.592 489.573 233.071 479.689C231.551 469.806 215.585 500.217 215.585 500.217Z" fill="black"/>
<path d="M261.202 618.822C261.202 618.822 225.468 658.357 225.468 659.878C225.468 661.398 206.461 692.57 206.461 692.57L169.207 775.442C169.207 775.442 183.653 795.209 189.735 793.689C195.817 792.168 239.154 703.975 239.154 703.975C239.154 703.975 246.756 684.207 267.284 679.645C287.812 675.084 303.778 659.118 296.175 640.871C288.572 622.624 261.202 618.822 261.202 618.822Z" fill="#2F2E41"/>
<path d="M215.585 505.539C229.021 505.539 239.914 494.647 239.914 481.21C239.914 467.773 229.021 456.881 215.585 456.881C202.148 456.881 191.255 467.773 191.255 481.21C191.255 494.647 202.148 505.539 215.585 505.539Z" fill="#A0616A"/>
<path d="M216.345 520.745C216.345 520.745 219.386 538.232 222.427 539.752C225.468 541.273 227.749 546.595 234.592 538.992C241.434 531.389 247.517 516.183 247.517 516.183L271.086 545.074L273.367 624.905C273.367 624.905 246.756 618.062 238.393 624.905C230.03 631.747 211.783 630.987 211.783 630.987L215.585 615.781L212.543 589.931L213.304 566.362L214.064 549.636L216.345 520.745Z" fill="#F2F2F2"/>
<path d="M219.023 507.948C219.023 507.948 208.742 513.142 207.982 516.183C207.222 519.224 193.536 525.307 193.536 525.307C193.536 525.307 188.214 530.629 188.214 533.67C188.214 536.711 206.461 571.684 206.461 571.684C206.461 571.684 210.263 595.253 208.742 599.815C207.222 604.377 211.783 621.863 211.783 621.863L202.66 632.507H211.023C211.023 632.507 220.146 627.946 220.146 625.665C220.146 623.384 218.626 607.418 217.866 600.575C217.105 593.733 217.105 569.403 218.626 561.04C220.146 552.677 219.386 530.629 219.386 525.307C219.386 519.985 219.023 507.948 219.023 507.948Z" fill="#3F3D56"/>
<path d="M242.575 496.403C242.575 496.403 245.996 497.176 255.88 500.217C265.764 503.259 280.969 507.82 286.291 513.903C290.027 518.401 293.336 523.237 296.175 528.348L293.134 583.089C293.134 583.089 299.216 594.493 298.456 600.575C297.696 606.658 291.613 607.418 296.175 620.343C300.737 633.268 309.86 644.672 301.497 646.193C293.134 647.713 271.086 642.391 261.202 645.432C251.318 648.474 239.914 634.028 239.914 634.028C239.914 634.028 255.12 635.549 252.839 629.466C250.558 623.384 225.468 554.958 230.79 539.752C236.112 524.547 242.575 496.403 242.575 496.403Z" fill="#3F3D56"/>
<path d="M192.016 529.869L188.214 532.91C188.214 532.91 177.57 570.924 180.611 574.726C183.652 578.527 207.982 586.89 209.502 581.568C211.023 576.246 192.016 529.869 192.016 529.869Z" fill="#3F3D56"/>
<path d="M304.538 556.479C304.538 556.479 315.943 589.171 315.943 598.294C315.943 607.418 314.422 660.638 314.422 660.638C314.422 660.638 313.662 683.447 297.696 674.323C281.73 665.2 297.696 659.117 297.696 659.117C297.696 659.117 296.935 599.055 290.853 590.691C284.771 582.328 282.49 570.164 282.49 570.164L304.538 556.479Z" fill="#A0616A"/>
<path d="M179.851 792.928C179.851 792.928 168.447 786.846 166.166 791.408C163.885 795.969 151.72 821.059 153.241 824.1C154.762 827.141 163.125 839.306 173.008 836.265C182.892 833.224 183.652 817.258 183.652 817.258L184.413 799.011L179.851 792.928Z" fill="#2F2E41"/>
<path d="M210.821 475.333C212.497 476.122 214.485 476.593 215.538 478.117C216.318 479.246 216.396 480.714 216.965 481.962C217.587 483.199 218.656 484.152 219.956 484.627C221.256 485.103 222.688 485.065 223.96 484.521C224.271 483.006 225.152 481.669 226.42 480.785C227.061 480.363 227.82 480.159 228.586 480.201C229.351 480.243 230.083 480.529 230.674 481.018C232.241 482.512 231.686 485.118 232.418 487.155C233.104 488.589 234.049 489.884 235.204 490.976C236.868 492.896 238.194 495.148 240.198 496.71C242.202 498.272 245.241 498.949 247.232 497.37C248.906 496.043 249.253 493.594 248.846 491.496C248.44 489.399 247.431 487.467 246.863 485.408C245.015 478.716 247.961 471.572 247.049 464.69C245.882 455.871 238.386 448.906 230.02 445.883C226.539 444.465 222.728 444.061 219.027 444.718C215.201 445.572 211.932 448.008 208.268 449.401C204.349 450.891 200.088 451.151 195.988 452.022C191.887 452.893 187.667 454.577 185.287 458.028C183.628 460.435 183.057 463.425 181.682 466.005C180.098 468.95 177.534 471.248 174.433 472.499L178.768 472.252C178.041 474.187 176.856 475.917 175.314 477.293C177.347 477.708 179.46 477.428 181.315 476.5C181.281 477.391 181.065 478.265 180.681 479.07C180.296 479.874 179.75 480.591 179.077 481.176C182.413 481.076 185.931 480.922 188.749 479.135C190.13 478.26 191.256 477.041 192.555 476.049C195.324 473.934 198.759 472.931 202.109 471.969C203.867 471.465 205.984 470.763 207.574 471.894C208.899 472.836 209.108 474.527 210.821 475.333Z" fill="#2F2E41"/>
<path d="M284.771 519.225L296.175 528.348L311.381 563.321C311.381 563.321 290.093 580.048 284.771 577.767C279.449 575.486 270.325 535.191 270.325 535.191L284.771 519.225Z" fill="#3F3D56"/>
<path d="M171.411 554.546L171.22 555.944L170.042 564.567L168.113 578.689L167.63 582.225C167.594 582.495 167.46 582.742 167.255 582.922C167.05 583.101 166.787 583.199 166.514 583.199H153.651C153.379 583.199 153.116 583.101 152.911 582.922C152.706 582.744 152.572 582.497 152.535 582.228L152.044 578.689L150.082 564.567L148.883 555.937L148.691 554.549C148.668 554.389 148.681 554.227 148.727 554.073C148.772 553.918 148.851 553.775 148.957 553.654C149.062 553.533 149.193 553.435 149.339 553.368C149.486 553.302 149.645 553.267 149.806 553.267H170.295C170.455 553.267 170.614 553.302 170.761 553.368C170.907 553.435 171.037 553.532 171.143 553.653C171.249 553.774 171.328 553.917 171.374 554.071C171.42 554.225 171.432 554.387 171.411 554.546Z" fill="#6C63FF"/>
<path d="M169.004 549.525H151.163C150.541 549.525 150.037 550.03 150.037 550.652V552.14C150.037 552.763 150.541 553.267 151.163 553.267H169.004C169.626 553.267 170.13 552.763 170.13 552.14V550.652C170.13 550.03 169.626 549.525 169.004 549.525Z" fill="#2F2E41"/>
<path d="M173.022 555.138C164.422 556.077 155.745 556.077 147.145 555.138C146.997 555.138 146.85 555.109 146.714 555.052C146.577 554.995 146.453 554.912 146.348 554.808C146.244 554.703 146.161 554.579 146.104 554.442C146.047 554.306 146.018 554.159 146.018 554.011V552.523C146.018 552.224 146.137 551.937 146.348 551.726C146.56 551.515 146.846 551.396 147.145 551.396C155.738 552.453 164.429 552.453 173.022 551.396C173.321 551.396 173.608 551.515 173.819 551.726C174.03 551.937 174.149 552.224 174.149 552.523V554.011C174.149 554.31 174.03 554.597 173.819 554.808C173.608 555.019 173.321 555.138 173.022 555.138Z" fill="#2F2E41"/>
<path d="M168.643 578.176H151.322C151.167 578.176 151.016 578.12 150.898 578.019C150.78 577.918 150.701 577.779 150.677 577.625L148.806 565.836C148.791 565.743 148.796 565.648 148.822 565.557C148.848 565.466 148.893 565.381 148.954 565.31C149.015 565.238 149.092 565.18 149.177 565.141C149.263 565.101 149.356 565.081 149.451 565.081H170.639C170.734 565.081 170.828 565.101 170.914 565.141C171 565.181 171.076 565.24 171.138 565.312C171.199 565.385 171.244 565.47 171.269 565.562C171.294 565.653 171.299 565.749 171.283 565.843L169.287 577.632C169.261 577.784 169.182 577.922 169.064 578.022C168.947 578.121 168.797 578.176 168.643 578.176Z" fill="#2F2E41"/>
</g>
<defs>
<clipPath id="clip0_13:869">
<rect width="995.001" height="836.749" fill="white"/>
</clipPath>
</defs>
</svg>
