<svg width="55" height="55" viewBox="0 0 55 55" fill="none" xmlns="http://www.w3.org/2000/svg">
<g clip-path="url(#clip0_93:180)">
<rect x="5.03027" y="-7" width="54" height="54" rx="4" transform="rotate(58.4746 5.03027 -7)" fill="#F7D46B"/>
<path d="M14.0617 23.8189H6.93828C5.81979 23.7753 4.76163 23.3003 3.9857 22.4935C3.20978 21.6868 2.77637 20.6109 2.77637 19.4916C2.77637 18.3723 3.20978 17.2964 3.9857 16.4896C4.76163 15.6829 5.81979 15.2079 6.93828 15.1643H14.0617C15.1802 15.2079 16.2384 15.6829 17.0143 16.4896C17.7902 17.2964 18.2236 18.3723 18.2236 19.4916C18.2236 20.6109 17.7902 21.6868 17.0143 22.4935C16.2384 23.3003 15.1802 23.7753 14.0617 23.8189ZM6.93828 16.8072C6.24929 16.8413 5.5998 17.139 5.12423 17.6387C4.64866 18.1383 4.38342 18.8018 4.38342 19.4916C4.38342 20.1814 4.64866 20.8448 5.12423 21.3445C5.5998 21.8442 6.24929 22.1419 6.93828 22.176H14.0617C14.7507 22.1419 15.4002 21.8442 15.8758 21.3445C16.3513 20.8448 16.6166 20.1814 16.6166 19.4916C16.6166 18.8018 16.3513 18.1383 15.8758 17.6387C15.4002 17.139 14.7507 16.8413 14.0617 16.8072H6.93828Z" fill="#1E1D80"/>
<path d="M10.4474 30.824H6.93826C5.79146 30.824 4.69163 30.3685 3.88073 29.5576C3.06982 28.7466 2.61426 27.6468 2.61426 26.5C2.61426 25.3532 3.06982 24.2534 3.88073 23.4425C4.69163 22.6316 5.79146 22.176 6.93826 22.176C7.15611 22.176 7.36505 22.2626 7.51909 22.4166C7.67314 22.5707 7.75968 22.7796 7.75968 22.9975C7.75968 23.2153 7.67314 23.4242 7.51909 23.5783C7.36505 23.7323 7.15611 23.8189 6.93826 23.8189C6.22717 23.8189 5.54521 24.1014 5.0424 24.6042C4.53959 25.107 4.25711 25.7889 4.25711 26.5C4.25711 27.2111 4.53959 27.8931 5.0424 28.3959C5.54521 28.8987 6.22717 29.1812 6.93826 29.1812H9.62597V22.9975C9.62597 22.7796 9.71251 22.5707 9.86656 22.4166C10.0206 22.2626 10.2295 22.176 10.4474 22.176C10.6653 22.176 10.8742 22.2626 11.0282 22.4166C11.1823 22.5707 11.2688 22.7796 11.2688 22.9975V30.0026C11.2688 30.2205 11.1823 30.4294 11.0282 30.5834C10.8742 30.7375 10.6653 30.824 10.4474 30.824Z" fill="#1E1D80"/>
<path d="M6.99093 37.8357C6.40848 37.8584 5.82743 37.7633 5.28262 37.5561C4.73781 37.3488 4.24044 37.0337 3.82032 36.6297C3.4002 36.2256 3.06597 35.7409 2.83767 35.2045C2.60937 34.6682 2.4917 34.0913 2.4917 33.5084C2.4917 32.9255 2.60937 32.3486 2.83767 31.8123C3.06597 31.276 3.4002 30.7913 3.82032 30.3872C4.24044 29.9831 4.73781 29.668 5.28262 29.4608C5.82743 29.2536 6.40848 29.1584 6.99093 29.1811C7.20879 29.1811 7.41772 29.2677 7.57177 29.4217C7.72582 29.5758 7.81236 29.7847 7.81236 30.0026C7.81236 30.2204 7.72582 30.4294 7.57177 30.5834C7.41772 30.7375 7.20879 30.824 6.99093 30.824C6.45908 30.8227 5.93879 30.9792 5.49593 31.2738C5.05308 31.5683 4.70756 31.9876 4.50313 32.4786C4.29869 32.9696 4.24453 33.5102 4.34749 34.032C4.45046 34.5538 4.70592 35.0333 5.08154 35.4099C5.45716 35.7864 5.93605 36.043 6.45759 36.1473C6.97914 36.2515 7.51988 36.1987 8.01138 35.9955C8.50288 35.7922 8.92303 35.4477 9.21865 35.0056C9.51428 34.5635 9.67207 34.0436 9.67208 33.5117V30.0026C9.67208 29.7847 9.75862 29.5758 9.91267 29.4217C10.0667 29.2677 10.2756 29.1811 10.4935 29.1811C10.7114 29.1811 10.9203 29.2677 11.0743 29.4217C11.2284 29.5758 11.3149 29.7847 11.3149 30.0026V33.5117C11.3132 34.658 10.8571 35.7568 10.0465 36.5673C9.23601 37.3778 8.1372 37.834 6.99093 37.8357Z" fill="#1E1D80"/>
<path d="M14.0028 30.9357C13.1359 30.9357 12.2884 30.6787 11.5676 30.197C10.8468 29.7154 10.285 29.0308 9.95328 28.2299C9.62153 27.429 9.53473 26.5477 9.70385 25.6975C9.87298 24.8472 10.2904 24.0662 10.9034 23.4532C11.5164 22.8402 12.2974 22.4228 13.1477 22.2537C13.9979 22.0845 14.8792 22.1713 15.6801 22.5031C16.481 22.8348 17.1656 23.3966 17.6472 24.1174C18.1289 24.8382 18.3859 25.6857 18.3859 26.5526C18.3859 27.1282 18.2725 27.6981 18.0523 28.2299C17.832 28.7617 17.5091 29.2449 17.1021 29.6519C16.6951 30.0589 16.2119 30.3818 15.6801 30.6021C15.1483 30.8223 14.5784 30.9357 14.0028 30.9357V30.9357ZM14.0028 23.8189C13.4605 23.8189 12.9305 23.9797 12.4797 24.2811C12.0289 24.5825 11.6777 25.0109 11.4705 25.512C11.2632 26.0131 11.2094 26.5644 11.3156 27.0962C11.4219 27.6279 11.6835 28.1162 12.0674 28.4991C12.4513 28.8821 12.9402 29.1426 13.4722 29.2476C14.0042 29.3526 14.5554 29.2974 15.056 29.089C15.5566 28.8805 15.9841 28.5283 16.2844 28.0768C16.5848 27.6253 16.7444 27.0948 16.7431 26.5526C16.7413 25.8269 16.4518 25.1316 15.9381 24.6192C15.4244 24.1067 14.7284 23.8189 14.0028 23.8189Z" fill="#1E1D80"/>
<path d="M10.4472 23.8189C10.3393 23.818 10.2327 23.7959 10.1334 23.7538C10.034 23.7118 9.94395 23.6505 9.86829 23.5736C9.79262 23.4968 9.73284 23.4057 9.69236 23.3057C9.65187 23.2057 9.63148 23.0988 9.63235 22.9909L9.68492 15.9792C9.68664 15.7636 9.77304 15.5573 9.92549 15.4049C10.0779 15.2524 10.2842 15.166 10.4998 15.1643V15.1643C10.6077 15.1652 10.7143 15.1873 10.8136 15.2293C10.913 15.2714 11.003 15.3326 11.0787 15.4095C11.1544 15.4864 11.2141 15.5775 11.2546 15.6775C11.2951 15.7774 11.3155 15.8844 11.3146 15.9923L11.2621 23.004C11.2587 23.2191 11.1717 23.4244 11.0197 23.5765C10.8676 23.7286 10.6623 23.8155 10.4472 23.8189V23.8189Z" fill="#1E1D80"/>
<path d="M36.8047 17.2307H37.8556V18.3537H39.0051V15H37.8556V16.1083H36.8047V15H35.6558V18.3537H36.8047V17.2307Z" fill="#1E1D80"/>
<path d="M40.5149 18.3537H41.6638V16.1128H42.6748V15H39.5039V16.1128H40.5149V18.3537Z" fill="#1E1D80"/>
<path d="M44.3027 16.6923L45.0943 17.884H45.1135L45.9035 16.6923V18.3537H47.0483V15H45.85L45.1135 16.1801L44.3769 15H43.1792V18.3537H44.3027V16.6923Z" fill="#1E1D80"/>
<path d="M50.3853 17.2459H48.7695V15H47.6206V18.3537H50.3853V17.2459Z" fill="#1E1D80"/>
<path d="M34 19.8252L35.6433 37.8065L43.0198 39.8039L50.4021 37.8075L52.0485 19.8252H34V19.8252ZM48.4834 25.7056H43.024H39.8329L40.0393 27.9641H43.024H48.278L47.6582 34.7367L43.024 35.9892L43.0209 35.9902L38.3898 34.7367L38.0667 31.1943H40.3355L40.5036 33.0318L43.0214 33.6958L43.0245 33.6947L45.5449 33.0308L45.8074 30.1705H43.0245H37.9728L37.3623 23.5012H43.024H48.6852L48.4834 25.7056Z" fill="#1E1D80"/>
</g>
<defs>
<clipPath id="clip0_93:180">
<rect width="55" height="55" fill="white"/>
</clipPath>
</defs>
</svg>
