<svg width="55" height="55" viewBox="0 0 55 55" fill="none" xmlns="http://www.w3.org/2000/svg">
<g clip-path="url(#clip0_93:206)">
<rect x="5.03027" y="-7" width="54" height="54" rx="4" transform="rotate(58.4746 5.03027 -7)" fill="#F7D46B"/>
<path d="M16.0617 24.8189H8.93828C7.81979 24.7753 6.76163 24.3003 5.9857 23.4935C5.20978 22.6868 4.77637 21.6109 4.77637 20.4916C4.77637 19.3723 5.20978 18.2964 5.9857 17.4896C6.76163 16.6829 7.81979 16.2079 8.93828 16.1643H16.0617C17.1802 16.2079 18.2384 16.6829 19.0143 17.4896C19.7902 18.2964 20.2236 19.3723 20.2236 20.4916C20.2236 21.6109 19.7902 22.6868 19.0143 23.4935C18.2384 24.3003 17.1802 24.7753 16.0617 24.8189ZM8.93828 17.8072C8.24929 17.8413 7.5998 18.139 7.12423 18.6387C6.64866 19.1383 6.38342 19.8018 6.38342 20.4916C6.38342 21.1814 6.64866 21.8448 7.12423 22.3445C7.5998 22.8442 8.24929 23.1419 8.93828 23.176H16.0617C16.7507 23.1419 17.4002 22.8442 17.8758 22.3445C18.3513 21.8448 18.6166 21.1814 18.6166 20.4916C18.6166 19.8018 18.3513 19.1383 17.8758 18.6387C17.4002 18.139 16.7507 17.8413 16.0617 17.8072H8.93828Z" fill="#1E1D80"/>
<path d="M12.4474 31.824H8.93826C7.79146 31.824 6.69163 31.3685 5.88073 30.5576C5.06982 29.7466 4.61426 28.6468 4.61426 27.5C4.61426 26.3532 5.06982 25.2534 5.88073 24.4425C6.69163 23.6316 7.79146 23.176 8.93826 23.176C9.15611 23.176 9.36505 23.2626 9.51909 23.4166C9.67314 23.5707 9.75968 23.7796 9.75968 23.9975C9.75968 24.2153 9.67314 24.4242 9.51909 24.5783C9.36505 24.7323 9.15611 24.8189 8.93826 24.8189C8.22717 24.8189 7.54521 25.1014 7.0424 25.6042C6.53959 26.107 6.25711 26.7889 6.25711 27.5C6.25711 28.2111 6.53959 28.8931 7.0424 29.3959C7.54521 29.8987 8.22717 30.1812 8.93826 30.1812H11.626V23.9975C11.626 23.7796 11.7125 23.5707 11.8666 23.4166C12.0206 23.2626 12.2295 23.176 12.4474 23.176C12.6653 23.176 12.8742 23.2626 13.0282 23.4166C13.1823 23.5707 13.2688 23.7796 13.2688 23.9975V31.0026C13.2688 31.2205 13.1823 31.4294 13.0282 31.5834C12.8742 31.7375 12.6653 31.824 12.4474 31.824Z" fill="#1E1D80"/>
<path d="M8.99093 38.8357C8.40848 38.8584 7.82743 38.7633 7.28262 38.5561C6.73781 38.3488 6.24044 38.0337 5.82032 37.6297C5.4002 37.2256 5.06597 36.7409 4.83767 36.2045C4.60937 35.6682 4.4917 35.0913 4.4917 34.5084C4.4917 33.9255 4.60937 33.3486 4.83767 32.8123C5.06597 32.276 5.4002 31.7913 5.82032 31.3872C6.24044 30.9831 6.73781 30.668 7.28262 30.4608C7.82743 30.2536 8.40848 30.1584 8.99093 30.1811C9.20879 30.1811 9.41772 30.2677 9.57177 30.4217C9.72582 30.5758 9.81236 30.7847 9.81236 31.0026C9.81236 31.2204 9.72582 31.4294 9.57177 31.5834C9.41772 31.7375 9.20879 31.824 8.99093 31.824C8.45908 31.8227 7.93879 31.9792 7.49593 32.2738C7.05308 32.5683 6.70756 32.9876 6.50313 33.4786C6.29869 33.9696 6.24453 34.5102 6.34749 35.032C6.45046 35.5538 6.70592 36.0333 7.08154 36.4099C7.45716 36.7864 7.93605 37.043 8.45759 37.1473C8.97914 37.2515 9.51988 37.1987 10.0114 36.9955C10.5029 36.7922 10.923 36.4477 11.2187 36.0056C11.5143 35.5635 11.6721 35.0436 11.6721 34.5117V31.0026C11.6721 30.7847 11.7586 30.5758 11.9127 30.4217C12.0667 30.2677 12.2756 30.1811 12.4935 30.1811C12.7114 30.1811 12.9203 30.2677 13.0743 30.4217C13.2284 30.5758 13.3149 30.7847 13.3149 31.0026V34.5117C13.3132 35.658 12.8571 36.7568 12.0465 37.5673C11.236 38.3778 10.1372 38.834 8.99093 38.8357Z" fill="#1E1D80"/>
<path d="M16.0028 31.9357C15.1359 31.9357 14.2884 31.6787 13.5676 31.197C12.8468 30.7154 12.285 30.0308 11.9533 29.2299C11.6215 28.429 11.5347 27.5477 11.7039 26.6975C11.873 25.8472 12.2904 25.0662 12.9034 24.4532C13.5164 23.8402 14.2974 23.4228 15.1477 23.2537C15.9979 23.0845 16.8792 23.1713 17.6801 23.5031C18.481 23.8348 19.1656 24.3966 19.6472 25.1174C20.1289 25.8382 20.3859 26.6857 20.3859 27.5526C20.3859 28.1282 20.2725 28.6981 20.0523 29.2299C19.832 29.7617 19.5091 30.2449 19.1021 30.6519C18.6951 31.0589 18.2119 31.3818 17.6801 31.6021C17.1483 31.8223 16.5784 31.9357 16.0028 31.9357V31.9357ZM16.0028 24.8189C15.4605 24.8189 14.9305 24.9797 14.4797 25.2811C14.0289 25.5825 13.6777 26.0109 13.4705 26.512C13.2632 27.0131 13.2094 27.5644 13.3156 28.0962C13.4219 28.6279 13.6835 29.1162 14.0674 29.4991C14.4513 29.8821 14.9402 30.1426 15.4722 30.2476C16.0042 30.3526 16.5554 30.2974 17.056 30.089C17.5566 29.8805 17.9841 29.5283 18.2844 29.0768C18.5848 28.6253 18.7444 28.0948 18.7431 27.5526C18.7413 26.8269 18.4518 26.1316 17.9381 25.6192C17.4244 25.1067 16.7284 24.8189 16.0028 24.8189Z" fill="#1E1D80"/>
<path d="M12.4472 24.8189C12.3393 24.818 12.2327 24.7959 12.1334 24.7538C12.034 24.7118 11.944 24.6505 11.8683 24.5736C11.7926 24.4968 11.7328 24.4057 11.6924 24.3057C11.6519 24.2057 11.6315 24.0988 11.6324 23.9909L11.6849 16.9792C11.6866 16.7636 11.773 16.5573 11.9255 16.4049C12.0779 16.2524 12.2842 16.166 12.4998 16.1643V16.1643C12.6077 16.1652 12.7143 16.1873 12.8136 16.2293C12.913 16.2714 13.003 16.3326 13.0787 16.4095C13.1544 16.4864 13.2141 16.5775 13.2546 16.6775C13.2951 16.7774 13.3155 16.8844 13.3146 16.9923L13.2621 24.004C13.2587 24.2191 13.1717 24.4244 13.0197 24.5765C12.8676 24.7286 12.6623 24.8155 12.4472 24.8189V24.8189Z" fill="#1E1D80"/>
<g clip-path="url(#clip1_93:206)">
<path d="M43.3585 29.9454C44.4914 29.9454 45.4098 29.0493 45.4098 27.9441C45.4098 26.8388 44.4914 25.9427 43.3585 25.9427C42.2255 25.9427 41.3071 26.8388 41.3071 27.9441C41.3071 29.0493 42.2255 29.9454 43.3585 29.9454Z" fill="#1E1D80"/>
<path d="M43.358 32.5287C40.4772 32.5287 37.96 32.1978 36.0762 31.5679C34.8544 31.1613 33.8165 30.6191 33.0769 30.0012C32.2923 29.3474 31.8755 28.6338 31.8755 27.9441C31.8755 26.6205 33.3629 25.3248 35.8596 24.4797C37.9028 23.786 40.5671 23.3993 43.354 23.3993C46.0918 23.3993 48.7193 23.774 50.7502 24.4597C51.9393 24.8584 52.9405 25.3767 53.6515 25.9507C54.4238 26.5806 54.8324 27.2703 54.8324 27.9441C54.8324 29.3195 53.1693 30.7108 50.4887 31.5759C48.5926 32.1899 46.0591 32.5287 43.358 32.5287ZM43.358 24.3561C40.7142 24.3561 38.099 24.7308 36.1866 25.3807C33.89 26.162 32.8603 27.2305 32.8603 27.9441C32.8603 28.6856 33.9677 29.8537 36.395 30.663C38.1766 31.257 40.5875 31.5719 43.358 31.5719C45.9569 31.5719 48.3801 31.253 50.1822 30.667C52.7035 29.8497 53.8558 28.6816 53.8558 27.9441C53.8558 27.5653 53.5616 27.1188 53.0263 26.6843C52.4092 26.182 51.5102 25.7235 50.4355 25.3607C48.5027 24.7149 45.9896 24.3561 43.358 24.3561Z" fill="#1E1D80"/>
<path d="M38.704 37.9187C38.2872 37.9187 37.9194 37.831 37.6089 37.6555C36.4361 36.9938 36.0275 35.0881 36.5219 32.5566C36.9264 30.4796 37.9153 28.0397 39.3088 25.6836C40.6777 23.3714 42.3204 21.3382 43.9427 19.9628C44.8907 19.1575 45.851 18.5674 46.7173 18.2565C47.6612 17.9176 48.4785 17.9176 49.0751 18.2525C50.2969 18.9382 50.7014 21.0432 50.1293 23.7381C49.7248 25.6517 48.7604 27.96 47.4119 30.2444C45.9736 32.6762 44.4208 34.6376 42.9211 35.9174C41.9485 36.7466 40.9474 37.3526 40.032 37.6675C39.5539 37.8349 39.1045 37.9187 38.704 37.9187ZM39.7297 25.9228L40.1546 26.162C38.8348 28.3945 37.8581 30.7905 37.4822 32.736C37.0286 35.0682 37.4658 36.4715 38.0951 36.8263C38.2504 36.914 38.4547 36.9619 38.704 36.9619C39.5172 36.9619 40.7962 36.4595 42.2754 35.1998C43.6934 33.9918 45.1767 32.1101 46.562 29.7699C47.8614 27.5733 48.7849 25.3647 49.1691 23.5508C49.7044 21.0113 49.2426 19.4565 48.5847 19.0857C48.2496 18.8983 47.7062 18.9223 47.0523 19.1575C46.2964 19.4286 45.4423 19.9588 44.5842 20.6883C43.0437 21.996 41.4704 23.9415 40.1546 26.166L39.7297 25.9228Z" fill="#1E1D80"/>
<path d="M48.0124 37.9305C46.9009 37.9305 45.4912 37.2767 44.0201 36.0408C42.3774 34.6614 40.7061 32.6083 39.3086 30.2522C37.9356 27.9399 36.9548 25.536 36.5421 23.4749C36.301 22.2709 36.2561 21.1666 36.4114 20.2776C36.583 19.3088 36.9875 18.6192 37.5882 18.2803C38.8059 17.5906 40.8777 18.3002 42.9862 20.1301C44.4818 21.4258 46.051 23.3952 47.4036 25.6755C48.846 28.1074 49.8145 30.3997 50.1986 32.3053C50.4479 33.5412 50.4887 34.6894 50.313 35.6222C50.125 36.6149 49.7001 37.3205 49.0871 37.6674C48.7806 37.8428 48.417 37.9305 48.0124 37.9305ZM40.1585 29.7738C41.4825 32.0063 43.1252 34.0276 44.6616 35.3153C46.5046 36.8621 47.9675 37.197 48.6008 36.8382C49.2587 36.4674 49.7409 34.9485 49.2424 32.4927C48.8746 30.6907 47.947 28.4981 46.5577 26.1579C45.2542 23.9613 43.7545 22.0756 42.3365 20.8477C40.3506 19.1255 38.7406 18.7387 38.0827 19.1095C37.7476 19.2969 37.4983 19.7713 37.3798 20.4411C37.245 21.2145 37.2858 22.2032 37.5065 23.2915C37.8988 25.249 38.8386 27.5493 40.1585 29.7738Z" fill="#1E1D80"/>
</g>
</g>
<defs>
<clipPath id="clip0_93:206">
<rect width="55" height="55" fill="white"/>
</clipPath>
<clipPath id="clip1_93:206">
<rect width="24.5179" height="23.9199" fill="white" transform="translate(31.1196 16)"/>
</clipPath>
</defs>
</svg>
