<svg width="55" height="55" viewBox="0 0 55 55" fill="none" xmlns="http://www.w3.org/2000/svg">
<g clip-path="url(#clip0_93:179)">
<rect x="5.03027" y="-7" width="54" height="54" rx="4" transform="rotate(58.4746 5.03027 -7)" fill="#F7D46B"/>
<path d="M4.8047 19.3287H5.85561V20.4517H7.00507V17.098H5.85561V18.2063H4.8047V17.098H3.65576V20.4517H4.8047V19.3287Z" fill="#1E1D80"/>
<path d="M8.51487 20.4517H9.66382V18.2108H10.6748V17.098H7.50391V18.2108H8.51487V20.4517Z" fill="#1E1D80"/>
<path d="M12.3027 18.7903L13.0943 19.9821H13.1135L13.9035 18.7903V20.4517H15.0483V17.098H13.85L13.1135 18.2782L12.3769 17.098H11.1792V20.4517H12.3027V18.7903Z" fill="#1E1D80"/>
<path d="M18.3853 19.3439H16.7695V17.098H15.6206V20.4517H18.3853V19.3439Z" fill="#1E1D80"/>
<path d="M2 21.9232L3.64327 39.9045L11.0198 41.9019L18.4021 39.9055L20.0485 21.9232H2V21.9232ZM16.4834 27.8036H11.024H7.83289L8.03934 30.0622H11.024H16.278L15.6582 36.8347L11.024 38.0872L11.0209 38.0882L6.38984 36.8347L6.06669 33.2923H8.33552L8.50359 35.1298L11.0214 35.7938L11.0245 35.7928L13.5449 35.1288L13.8074 32.2686H11.0245H5.9728L5.36228 25.5992H11.024H16.6852L16.4834 27.8036Z" fill="#1E1D80"/>
<path d="M41.7679 29.409C42.8572 29.409 43.7403 28.5474 43.7403 27.4846C43.7403 26.4219 42.8572 25.5603 41.7679 25.5603C40.6785 25.5603 39.7954 26.4219 39.7954 27.4846C39.7954 28.5474 40.6785 29.409 41.7679 29.409Z" fill="#1E1D80"/>
<path d="M41.7675 31.893C38.9975 31.893 36.5771 31.5748 34.7657 30.9691C33.5909 30.5781 32.5929 30.0568 31.8817 29.4626C31.1273 28.834 30.7266 28.1478 30.7266 27.4846C30.7266 26.212 32.1568 24.9661 34.5575 24.1535C36.5221 23.4865 39.0839 23.1146 41.7636 23.1146C44.3961 23.1146 46.9226 23.475 48.8754 24.1343C50.0188 24.5176 50.9814 25.016 51.6651 25.568C52.4077 26.1736 52.8006 26.8368 52.8006 27.4846C52.8006 28.8071 51.2015 30.145 48.6239 30.9768C46.8008 31.5671 44.3647 31.893 41.7675 31.893ZM41.7675 24.0346C39.2254 24.0346 36.7107 24.395 34.8718 25.0198C32.6636 25.7711 31.6735 26.7985 31.6735 27.4846C31.6735 28.1976 32.7383 29.3208 35.0722 30.099C36.7853 30.6701 39.1035 30.973 41.7675 30.973C44.2665 30.973 46.5965 30.6663 48.3292 30.1028C50.7535 29.317 51.8616 28.1938 51.8616 27.4846C51.8616 27.1205 51.5787 26.6911 51.0639 26.2733C50.4706 25.7903 49.6062 25.3495 48.5728 25.0006C46.7143 24.3796 44.2979 24.0346 41.7675 24.0346Z" fill="#1E1D80"/>
<path d="M37.2928 37.0757C36.892 37.0757 36.5384 36.9913 36.2398 36.8227C35.1121 36.1863 34.7192 34.354 35.1946 31.9198C35.5836 29.9227 36.5345 27.5767 37.8743 25.3112C39.1906 23.0878 40.7701 21.1328 42.33 19.8103C43.2416 19.036 44.1649 18.4687 44.9979 18.1697C45.9055 17.8438 46.6914 17.8438 47.265 18.1658C48.4399 18.8252 48.8288 20.8492 48.2788 23.4405C47.8898 25.2805 46.9625 27.5 45.6659 29.6965C44.2828 32.0348 42.7897 33.9208 41.3477 35.1513C40.4126 35.9487 39.4499 36.5313 38.5698 36.8342C38.1101 36.9952 37.6779 37.0757 37.2928 37.0757ZM38.279 25.5412L38.6877 25.7712C37.4185 27.9178 36.4795 30.2217 36.118 32.0923C35.6819 34.3348 36.1023 35.6842 36.7074 36.0253C36.8567 36.1097 37.0531 36.1557 37.2928 36.1557C38.0747 36.1557 39.3045 35.6727 40.7269 34.4613C42.0903 33.2998 43.5166 31.4905 44.8486 29.2403C46.0981 27.1282 46.9861 25.0045 47.3554 23.2603C47.8701 20.8185 47.4261 19.3235 46.7935 18.967C46.4713 18.7868 45.9488 18.8098 45.3201 19.036C44.5932 19.2967 43.772 19.8065 42.9469 20.508C41.4656 21.7653 39.9529 23.636 38.6877 25.775L38.279 25.5412Z" fill="#1E1D80"/>
<path d="M46.2434 37.0872C45.1747 37.0872 43.8191 36.4585 42.4046 35.2702C40.8251 33.9439 39.2181 31.9697 37.8743 29.7042C36.5541 27.4808 35.6111 25.1693 35.2143 23.1875C34.9825 22.0298 34.9392 20.968 35.0885 20.1132C35.2536 19.1817 35.6426 18.5185 36.2201 18.1927C37.391 17.5295 39.3831 18.2118 41.4106 19.9713C42.8486 21.2172 44.3574 23.1108 45.658 25.3035C47.045 27.6418 47.9762 29.846 48.3455 31.6784C48.5852 32.8667 48.6245 33.9707 48.4556 34.8677C48.2748 35.8222 47.8662 36.5007 47.2768 36.8342C46.9821 37.0029 46.6324 37.0872 46.2434 37.0872ZM38.6916 29.2442C39.9646 31.3909 41.5442 33.3344 43.0215 34.5725C44.7936 36.0599 46.2002 36.3819 46.8092 36.0369C47.4418 35.6804 47.9055 34.2199 47.4261 31.8585C47.0725 30.1259 46.1806 28.0175 44.8447 25.7673C43.5913 23.6552 42.1493 21.842 40.7858 20.6613C38.8763 19.0053 37.3282 18.6335 36.6956 18.99C36.3734 19.1702 36.1337 19.6263 36.0198 20.2703C35.8901 21.014 35.9294 21.9647 36.1416 23.0112C36.5188 24.8933 37.4225 27.1052 38.6916 29.2442Z" fill="#1E1D80"/>
</g>
<defs>
<clipPath id="clip0_93:179">
<rect width="55" height="55" fill="white"/>
</clipPath>
</defs>
</svg>
